<svg xmlns="http://www.w3.org/2000/svg" viewBox="0 0 1024 1024">
  <defs><clipPath id="tile"><rect width="1024" height="1024" rx="184"/></clipPath></defs>
  <rect width="1024" height="1024" rx="184" fill="#08060F"/>
  <g fill="#D9D2F2" clip-path="url(#tile)">
    <circle cx="10.7" cy="10.7" r="1.82"/>
<circle cx="32.0" cy="10.7" r="1.82"/>
<circle cx="53.3" cy="10.7" r="1.82"/>
<circle cx="74.7" cy="10.7" r="1.82"/>
<circle cx="96.0" cy="10.7" r="1.82"/>
<circle cx="117.3" cy="10.7" r="1.82"/>
<circle cx="138.7" cy="10.7" r="1.82"/>
<circle cx="160.0" cy="10.7" r="1.82"/>
<circle cx="181.3" cy="10.7" r="1.82"/>
<circle cx="202.7" cy="10.7" r="1.82"/>
<circle cx="224.0" cy="10.7" r="1.82"/>
<circle cx="245.3" cy="10.7" r="1.82"/>
<circle cx="266.7" cy="10.7" r="1.82"/>
<circle cx="288.0" cy="10.7" r="1.82"/>
<circle cx="309.3" cy="10.7" r="1.82"/>
<circle cx="330.7" cy="10.7" r="1.82"/>
<circle cx="352.0" cy="10.7" r="1.82"/>
<circle cx="373.3" cy="10.7" r="1.82"/>
<circle cx="394.7" cy="10.7" r="1.82"/>
<circle cx="416.0" cy="10.7" r="1.82"/>
<circle cx="437.3" cy="10.7" r="1.82"/>
<circle cx="458.7" cy="10.7" r="1.82"/>
<circle cx="480.0" cy="10.7" r="1.82"/>
<circle cx="501.3" cy="10.7" r="1.82"/>
<circle cx="522.7" cy="10.7" r="1.82"/>
<circle cx="544.0" cy="10.7" r="1.82"/>
<circle cx="565.3" cy="10.7" r="1.82"/>
<circle cx="586.7" cy="10.7" r="1.82"/>
<circle cx="608.0" cy="10.7" r="1.82"/>
<circle cx="629.3" cy="10.7" r="1.82"/>
<circle cx="650.7" cy="10.7" r="1.82"/>
<circle cx="672.0" cy="10.7" r="1.82"/>
<circle cx="693.3" cy="10.7" r="1.82"/>
<circle cx="714.7" cy="10.7" r="1.82"/>
<circle cx="736.0" cy="10.7" r="1.82"/>
<circle cx="757.3" cy="10.7" r="1.82"/>
<circle cx="778.7" cy="10.7" r="1.82"/>
<circle cx="800.0" cy="10.7" r="1.82"/>
<circle cx="821.3" cy="10.7" r="1.82"/>
<circle cx="842.7" cy="10.7" r="1.82"/>
<circle cx="864.0" cy="10.7" r="1.82"/>
<circle cx="885.3" cy="10.7" r="1.82"/>
<circle cx="906.7" cy="10.7" r="1.82"/>
<circle cx="928.0" cy="10.7" r="1.82"/>
<circle cx="949.3" cy="10.7" r="1.82"/>
<circle cx="970.7" cy="10.7" r="1.82"/>
<circle cx="992.0" cy="10.7" r="1.82"/>
<circle cx="1013.3" cy="10.7" r="1.82"/>
<circle cx="10.7" cy="32.0" r="1.82"/>
<circle cx="32.0" cy="32.0" r="1.82"/>
<circle cx="53.3" cy="32.0" r="1.82"/>
<circle cx="74.7" cy="32.0" r="1.82"/>
<circle cx="96.0" cy="32.0" r="1.82"/>
<circle cx="117.3" cy="32.0" r="1.82"/>
<circle cx="138.7" cy="32.0" r="1.82"/>
<circle cx="160.0" cy="32.0" r="1.82"/>
<circle cx="181.3" cy="32.0" r="1.82"/>
<circle cx="202.7" cy="32.0" r="1.82"/>
<circle cx="224.0" cy="32.0" r="1.82"/>
<circle cx="245.3" cy="32.0" r="1.82"/>
<circle cx="266.7" cy="32.0" r="1.82"/>
<circle cx="288.0" cy="32.0" r="1.82"/>
<circle cx="309.3" cy="32.0" r="1.82"/>
<circle cx="330.7" cy="32.0" r="1.82"/>
<circle cx="352.0" cy="32.0" r="1.82"/>
<circle cx="373.3" cy="32.0" r="1.82"/>
<circle cx="394.7" cy="32.0" r="1.82"/>
<circle cx="416.0" cy="32.0" r="1.82"/>
<circle cx="437.3" cy="32.0" r="1.82"/>
<circle cx="458.7" cy="32.0" r="1.82"/>
<circle cx="480.0" cy="32.0" r="1.82"/>
<circle cx="501.3" cy="32.0" r="1.82"/>
<circle cx="522.7" cy="32.0" r="1.82"/>
<circle cx="544.0" cy="32.0" r="1.82"/>
<circle cx="565.3" cy="32.0" r="1.82"/>
<circle cx="586.7" cy="32.0" r="1.82"/>
<circle cx="608.0" cy="32.0" r="1.82"/>
<circle cx="629.3" cy="32.0" r="1.82"/>
<circle cx="650.7" cy="32.0" r="1.82"/>
<circle cx="672.0" cy="32.0" r="1.82"/>
<circle cx="693.3" cy="32.0" r="1.82"/>
<circle cx="714.7" cy="32.0" r="1.82"/>
<circle cx="736.0" cy="32.0" r="1.82"/>
<circle cx="757.3" cy="32.0" r="1.82"/>
<circle cx="778.7" cy="32.0" r="1.82"/>
<circle cx="800.0" cy="32.0" r="1.82"/>
<circle cx="821.3" cy="32.0" r="1.82"/>
<circle cx="842.7" cy="32.0" r="1.82"/>
<circle cx="864.0" cy="32.0" r="1.82"/>
<circle cx="885.3" cy="32.0" r="1.82"/>
<circle cx="906.7" cy="32.0" r="1.82"/>
<circle cx="928.0" cy="32.0" r="1.82"/>
<circle cx="949.3" cy="32.0" r="1.82"/>
<circle cx="970.7" cy="32.0" r="1.82"/>
<circle cx="992.0" cy="32.0" r="1.82"/>
<circle cx="1013.3" cy="32.0" r="1.82"/>
<circle cx="10.7" cy="53.3" r="1.82"/>
<circle cx="32.0" cy="53.3" r="1.82"/>
<circle cx="53.3" cy="53.3" r="1.82"/>
<circle cx="74.7" cy="53.3" r="1.82"/>
<circle cx="96.0" cy="53.3" r="1.82"/>
<circle cx="117.3" cy="53.3" r="1.82"/>
<circle cx="138.7" cy="53.3" r="1.82"/>
<circle cx="160.0" cy="53.3" r="1.82"/>
<circle cx="181.3" cy="53.3" r="1.82"/>
<circle cx="202.7" cy="53.3" r="1.82"/>
<circle cx="224.0" cy="53.3" r="1.82"/>
<circle cx="245.3" cy="53.3" r="1.82"/>
<circle cx="266.7" cy="53.3" r="1.82"/>
<circle cx="288.0" cy="53.3" r="1.82"/>
<circle cx="309.3" cy="53.3" r="1.82"/>
<circle cx="330.7" cy="53.3" r="1.82"/>
<circle cx="352.0" cy="53.3" r="1.82"/>
<circle cx="373.3" cy="53.3" r="1.82"/>
<circle cx="394.7" cy="53.3" r="1.82"/>
<circle cx="416.0" cy="53.3" r="1.82"/>
<circle cx="437.3" cy="53.3" r="1.82"/>
<circle cx="458.7" cy="53.3" r="1.82"/>
<circle cx="480.0" cy="53.3" r="1.82"/>
<circle cx="501.3" cy="53.3" r="1.82"/>
<circle cx="522.7" cy="53.3" r="1.82"/>
<circle cx="544.0" cy="53.3" r="1.82"/>
<circle cx="565.3" cy="53.3" r="1.82"/>
<circle cx="586.7" cy="53.3" r="1.82"/>
<circle cx="608.0" cy="53.3" r="1.82"/>
<circle cx="629.3" cy="53.3" r="1.82"/>
<circle cx="650.7" cy="53.3" r="1.82"/>
<circle cx="672.0" cy="53.3" r="1.82"/>
<circle cx="693.3" cy="53.3" r="1.82"/>
<circle cx="714.7" cy="53.3" r="1.82"/>
<circle cx="736.0" cy="53.3" r="1.82"/>
<circle cx="757.3" cy="53.3" r="1.82"/>
<circle cx="778.7" cy="53.3" r="1.82"/>
<circle cx="800.0" cy="53.3" r="1.82"/>
<circle cx="821.3" cy="53.3" r="1.82"/>
<circle cx="842.7" cy="53.3" r="1.82"/>
<circle cx="864.0" cy="53.3" r="1.82"/>
<circle cx="885.3" cy="53.3" r="1.82"/>
<circle cx="906.7" cy="53.3" r="1.82"/>
<circle cx="928.0" cy="53.3" r="1.82"/>
<circle cx="949.3" cy="53.3" r="1.82"/>
<circle cx="970.7" cy="53.3" r="1.82"/>
<circle cx="992.0" cy="53.3" r="1.82"/>
<circle cx="1013.3" cy="53.3" r="1.82"/>
<circle cx="10.7" cy="74.7" r="1.82"/>
<circle cx="32.0" cy="74.7" r="1.82"/>
<circle cx="53.3" cy="74.7" r="1.82"/>
<circle cx="74.7" cy="74.7" r="1.82"/>
<circle cx="96.0" cy="74.7" r="1.82"/>
<circle cx="117.3" cy="74.7" r="1.82"/>
<circle cx="138.7" cy="74.7" r="1.82"/>
<circle cx="160.0" cy="74.7" r="1.82"/>
<circle cx="181.3" cy="74.7" r="1.82"/>
<circle cx="202.7" cy="74.7" r="1.82"/>
<circle cx="224.0" cy="74.7" r="1.82"/>
<circle cx="245.3" cy="74.7" r="1.82"/>
<circle cx="266.7" cy="74.7" r="1.82"/>
<circle cx="288.0" cy="74.7" r="1.82"/>
<circle cx="309.3" cy="74.7" r="1.82"/>
<circle cx="330.7" cy="74.7" r="1.82"/>
<circle cx="352.0" cy="74.7" r="1.82"/>
<circle cx="373.3" cy="74.7" r="1.82"/>
<circle cx="394.7" cy="74.7" r="1.82"/>
<circle cx="416.0" cy="74.7" r="1.82"/>
<circle cx="437.3" cy="74.7" r="1.82"/>
<circle cx="458.7" cy="74.7" r="1.82"/>
<circle cx="480.0" cy="74.7" r="1.82"/>
<circle cx="501.3" cy="74.7" r="1.82"/>
<circle cx="522.7" cy="74.7" r="1.82"/>
<circle cx="544.0" cy="74.7" r="1.82"/>
<circle cx="565.3" cy="74.7" r="1.82"/>
<circle cx="586.7" cy="74.7" r="1.82"/>
<circle cx="608.0" cy="74.7" r="1.82"/>
<circle cx="629.3" cy="74.7" r="1.82"/>
<circle cx="650.7" cy="74.7" r="1.82"/>
<circle cx="672.0" cy="74.7" r="1.82"/>
<circle cx="693.3" cy="74.7" r="1.82"/>
<circle cx="714.7" cy="74.7" r="1.82"/>
<circle cx="736.0" cy="74.7" r="1.82"/>
<circle cx="757.3" cy="74.7" r="1.82"/>
<circle cx="778.7" cy="74.7" r="1.82"/>
<circle cx="800.0" cy="74.7" r="1.82"/>
<circle cx="821.3" cy="74.7" r="1.82"/>
<circle cx="842.7" cy="74.7" r="1.82"/>
<circle cx="864.0" cy="74.7" r="1.82"/>
<circle cx="885.3" cy="74.7" r="1.82"/>
<circle cx="906.7" cy="74.7" r="1.82"/>
<circle cx="928.0" cy="74.7" r="1.82"/>
<circle cx="949.3" cy="74.7" r="1.82"/>
<circle cx="970.7" cy="74.7" r="1.82"/>
<circle cx="992.0" cy="74.7" r="1.82"/>
<circle cx="1013.3" cy="74.7" r="1.82"/>
<circle cx="10.7" cy="96.0" r="1.82"/>
<circle cx="32.0" cy="96.0" r="1.82"/>
<circle cx="53.3" cy="96.0" r="1.82"/>
<circle cx="74.7" cy="96.0" r="1.82"/>
<circle cx="96.0" cy="96.0" r="1.82"/>
<circle cx="117.3" cy="96.0" r="1.82"/>
<circle cx="138.7" cy="96.0" r="1.82"/>
<circle cx="160.0" cy="96.0" r="1.82"/>
<circle cx="181.3" cy="96.0" r="1.82"/>
<circle cx="202.7" cy="96.0" r="1.82"/>
<circle cx="224.0" cy="96.0" r="1.82"/>
<circle cx="245.3" cy="96.0" r="1.82"/>
<circle cx="266.7" cy="96.0" r="1.82"/>
<circle cx="288.0" cy="96.0" r="1.82"/>
<circle cx="309.3" cy="96.0" r="1.82"/>
<circle cx="330.7" cy="96.0" r="1.82"/>
<circle cx="352.0" cy="96.0" r="1.82"/>
<circle cx="373.3" cy="96.0" r="1.82"/>
<circle cx="394.7" cy="96.0" r="1.82"/>
<circle cx="416.0" cy="96.0" r="1.82"/>
<circle cx="437.3" cy="96.0" r="1.82"/>
<circle cx="458.7" cy="96.0" r="1.82"/>
<circle cx="480.0" cy="96.0" r="1.82"/>
<circle cx="501.3" cy="96.0" r="1.82"/>
<circle cx="522.7" cy="96.0" r="1.82"/>
<circle cx="544.0" cy="96.0" r="1.82"/>
<circle cx="565.3" cy="96.0" r="1.82"/>
<circle cx="586.7" cy="96.0" r="1.82"/>
<circle cx="608.0" cy="96.0" r="1.82"/>
<circle cx="629.3" cy="96.0" r="1.82"/>
<circle cx="650.7" cy="96.0" r="1.82"/>
<circle cx="672.0" cy="96.0" r="1.82"/>
<circle cx="693.3" cy="96.0" r="1.82"/>
<circle cx="714.7" cy="96.0" r="1.82"/>
<circle cx="736.0" cy="96.0" r="1.82"/>
<circle cx="757.3" cy="96.0" r="1.82"/>
<circle cx="778.7" cy="96.0" r="1.82"/>
<circle cx="800.0" cy="96.0" r="1.82"/>
<circle cx="821.3" cy="96.0" r="1.82"/>
<circle cx="842.7" cy="96.0" r="1.82"/>
<circle cx="864.0" cy="96.0" r="1.82"/>
<circle cx="885.3" cy="96.0" r="1.82"/>
<circle cx="906.7" cy="96.0" r="1.82"/>
<circle cx="928.0" cy="96.0" r="1.82"/>
<circle cx="949.3" cy="96.0" r="1.82"/>
<circle cx="970.7" cy="96.0" r="1.82"/>
<circle cx="992.0" cy="96.0" r="1.82"/>
<circle cx="1013.3" cy="96.0" r="1.82"/>
<circle cx="10.7" cy="117.3" r="1.82"/>
<circle cx="32.0" cy="117.3" r="1.82"/>
<circle cx="53.3" cy="117.3" r="1.82"/>
<circle cx="74.7" cy="117.3" r="1.82"/>
<circle cx="96.0" cy="117.3" r="1.82"/>
<circle cx="117.3" cy="117.3" r="1.82"/>
<circle cx="138.7" cy="117.3" r="1.82"/>
<circle cx="160.0" cy="117.3" r="1.82"/>
<circle cx="181.3" cy="117.3" r="1.82"/>
<circle cx="202.7" cy="117.3" r="1.82"/>
<circle cx="224.0" cy="117.3" r="1.82"/>
<circle cx="245.3" cy="117.3" r="1.82"/>
<circle cx="266.7" cy="117.3" r="1.82"/>
<circle cx="288.0" cy="117.3" r="1.82"/>
<circle cx="309.3" cy="117.3" r="1.82"/>
<circle cx="330.7" cy="117.3" r="1.82"/>
<circle cx="352.0" cy="117.3" r="1.82"/>
<circle cx="373.3" cy="117.3" r="1.82"/>
<circle cx="394.7" cy="117.3" r="1.82"/>
<circle cx="416.0" cy="117.3" r="1.82"/>
<circle cx="437.3" cy="117.3" r="1.82"/>
<circle cx="458.7" cy="117.3" r="1.82"/>
<circle cx="480.0" cy="117.3" r="1.82"/>
<circle cx="501.3" cy="117.3" r="1.82"/>
<circle cx="522.7" cy="117.3" r="1.82"/>
<circle cx="544.0" cy="117.3" r="1.82"/>
<circle cx="565.3" cy="117.3" r="1.82"/>
<circle cx="586.7" cy="117.3" r="1.82"/>
<circle cx="608.0" cy="117.3" r="1.82"/>
<circle cx="629.3" cy="117.3" r="1.82"/>
<circle cx="650.7" cy="117.3" r="1.82"/>
<circle cx="672.0" cy="117.3" r="1.82"/>
<circle cx="693.3" cy="117.3" r="1.82"/>
<circle cx="714.7" cy="117.3" r="1.82"/>
<circle cx="736.0" cy="117.3" r="1.82"/>
<circle cx="757.3" cy="117.3" r="1.82"/>
<circle cx="778.7" cy="117.3" r="1.82"/>
<circle cx="800.0" cy="117.3" r="1.82"/>
<circle cx="821.3" cy="117.3" r="1.82"/>
<circle cx="842.7" cy="117.3" r="1.82"/>
<circle cx="864.0" cy="117.3" r="1.82"/>
<circle cx="885.3" cy="117.3" r="1.82"/>
<circle cx="906.7" cy="117.3" r="1.82"/>
<circle cx="928.0" cy="117.3" r="1.82"/>
<circle cx="949.3" cy="117.3" r="1.82"/>
<circle cx="970.7" cy="117.3" r="1.82"/>
<circle cx="992.0" cy="117.3" r="1.82"/>
<circle cx="1013.3" cy="117.3" r="1.82"/>
<circle cx="10.7" cy="138.7" r="1.82"/>
<circle cx="32.0" cy="138.7" r="1.82"/>
<circle cx="53.3" cy="138.7" r="1.82"/>
<circle cx="74.7" cy="138.7" r="1.82"/>
<circle cx="96.0" cy="138.7" r="1.82"/>
<circle cx="117.3" cy="138.7" r="1.82"/>
<circle cx="138.7" cy="138.7" r="1.82"/>
<circle cx="160.0" cy="138.7" r="1.82"/>
<circle cx="181.3" cy="138.7" r="1.82"/>
<circle cx="202.7" cy="138.7" r="1.82"/>
<circle cx="224.0" cy="138.7" r="1.82"/>
<circle cx="245.3" cy="138.7" r="1.82"/>
<circle cx="266.7" cy="138.7" r="1.82"/>
<circle cx="288.0" cy="138.7" r="1.82"/>
<circle cx="309.3" cy="138.7" r="1.82"/>
<circle cx="330.7" cy="138.7" r="1.82"/>
<circle cx="352.0" cy="138.7" r="1.82"/>
<circle cx="373.3" cy="138.7" r="1.82"/>
<circle cx="394.7" cy="138.7" r="1.82"/>
<circle cx="416.0" cy="138.7" r="1.82"/>
<circle cx="437.3" cy="138.7" r="1.82"/>
<circle cx="458.7" cy="138.7" r="1.82"/>
<circle cx="480.0" cy="138.7" r="1.82"/>
<circle cx="501.3" cy="138.7" r="1.82"/>
<circle cx="522.7" cy="138.7" r="1.82"/>
<circle cx="544.0" cy="138.7" r="1.82"/>
<circle cx="565.3" cy="138.7" r="1.82"/>
<circle cx="586.7" cy="138.7" r="1.82"/>
<circle cx="608.0" cy="138.7" r="1.82"/>
<circle cx="629.3" cy="138.7" r="1.82"/>
<circle cx="650.7" cy="138.7" r="1.82"/>
<circle cx="672.0" cy="138.7" r="1.82"/>
<circle cx="693.3" cy="138.7" r="1.82"/>
<circle cx="714.7" cy="138.7" r="1.82"/>
<circle cx="736.0" cy="138.7" r="1.82"/>
<circle cx="757.3" cy="138.7" r="1.82"/>
<circle cx="778.7" cy="138.7" r="1.82"/>
<circle cx="800.0" cy="138.7" r="1.82"/>
<circle cx="821.3" cy="138.7" r="1.82"/>
<circle cx="842.7" cy="138.7" r="1.82"/>
<circle cx="864.0" cy="138.7" r="1.82"/>
<circle cx="885.3" cy="138.7" r="1.82"/>
<circle cx="906.7" cy="138.7" r="1.82"/>
<circle cx="928.0" cy="138.7" r="1.82"/>
<circle cx="949.3" cy="138.7" r="1.82"/>
<circle cx="970.7" cy="138.7" r="1.82"/>
<circle cx="992.0" cy="138.7" r="1.82"/>
<circle cx="1013.3" cy="138.7" r="1.82"/>
<circle cx="10.7" cy="160.0" r="1.82"/>
<circle cx="32.0" cy="160.0" r="1.82"/>
<circle cx="53.3" cy="160.0" r="1.82"/>
<circle cx="74.7" cy="160.0" r="1.82"/>
<circle cx="96.0" cy="160.0" r="1.82"/>
<circle cx="117.3" cy="160.0" r="1.82"/>
<circle cx="138.7" cy="160.0" r="1.82"/>
<circle cx="160.0" cy="160.0" r="1.82"/>
<circle cx="181.3" cy="160.0" r="1.82"/>
<circle cx="202.7" cy="160.0" r="1.82"/>
<circle cx="224.0" cy="160.0" r="1.82"/>
<circle cx="245.3" cy="160.0" r="1.82"/>
<circle cx="266.7" cy="160.0" r="1.82"/>
<circle cx="288.0" cy="160.0" r="1.82"/>
<circle cx="309.3" cy="160.0" r="1.82"/>
<circle cx="330.7" cy="160.0" r="1.82"/>
<circle cx="352.0" cy="160.0" r="1.82"/>
<circle cx="373.3" cy="160.0" r="1.82"/>
<circle cx="394.7" cy="160.0" r="1.82"/>
<circle cx="416.0" cy="160.0" r="1.82"/>
<circle cx="437.3" cy="160.0" r="1.82"/>
<circle cx="458.7" cy="160.0" r="1.82"/>
<circle cx="480.0" cy="160.0" r="1.82"/>
<circle cx="501.3" cy="160.0" r="1.82"/>
<circle cx="522.7" cy="160.0" r="1.82"/>
<circle cx="544.0" cy="160.0" r="1.82"/>
<circle cx="565.3" cy="160.0" r="1.82"/>
<circle cx="586.7" cy="160.0" r="1.82"/>
<circle cx="608.0" cy="160.0" r="1.82"/>
<circle cx="629.3" cy="160.0" r="1.82"/>
<circle cx="650.7" cy="160.0" r="1.82"/>
<circle cx="672.0" cy="160.0" r="1.82"/>
<circle cx="693.3" cy="160.0" r="1.82"/>
<circle cx="714.7" cy="160.0" r="1.82"/>
<circle cx="736.0" cy="160.0" r="1.82"/>
<circle cx="757.3" cy="160.0" r="1.82"/>
<circle cx="778.7" cy="160.0" r="1.82"/>
<circle cx="800.0" cy="160.0" r="1.82"/>
<circle cx="821.3" cy="160.0" r="1.82"/>
<circle cx="842.7" cy="160.0" r="1.82"/>
<circle cx="864.0" cy="160.0" r="1.82"/>
<circle cx="885.3" cy="160.0" r="1.82"/>
<circle cx="906.7" cy="160.0" r="1.82"/>
<circle cx="928.0" cy="160.0" r="1.82"/>
<circle cx="949.3" cy="160.0" r="1.82"/>
<circle cx="970.7" cy="160.0" r="1.82"/>
<circle cx="992.0" cy="160.0" r="1.82"/>
<circle cx="1013.3" cy="160.0" r="1.82"/>
<circle cx="10.7" cy="181.3" r="1.82"/>
<circle cx="32.0" cy="181.3" r="1.82"/>
<circle cx="53.3" cy="181.3" r="1.82"/>
<circle cx="74.7" cy="181.3" r="1.82"/>
<circle cx="96.0" cy="181.3" r="1.82"/>
<circle cx="117.3" cy="181.3" r="1.82"/>
<circle cx="138.7" cy="181.3" r="1.82"/>
<circle cx="160.0" cy="181.3" r="1.82"/>
<circle cx="181.3" cy="181.3" r="1.82"/>
<circle cx="202.7" cy="181.3" r="1.82"/>
<circle cx="224.0" cy="181.3" r="1.82"/>
<circle cx="245.3" cy="181.3" r="1.82"/>
<circle cx="266.7" cy="181.3" r="1.82"/>
<circle cx="288.0" cy="181.3" r="1.82"/>
<circle cx="309.3" cy="181.3" r="1.82"/>
<circle cx="330.7" cy="181.3" r="1.82"/>
<circle cx="352.0" cy="181.3" r="1.82"/>
<circle cx="373.3" cy="181.3" r="1.82"/>
<circle cx="394.7" cy="181.3" r="1.82"/>
<circle cx="416.0" cy="181.3" r="1.82"/>
<circle cx="437.3" cy="181.3" r="1.82"/>
<circle cx="458.7" cy="181.3" r="1.82"/>
<circle cx="480.0" cy="181.3" r="1.82"/>
<circle cx="501.3" cy="181.3" r="1.82"/>
<circle cx="522.7" cy="181.3" r="1.82"/>
<circle cx="544.0" cy="181.3" r="1.82"/>
<circle cx="565.3" cy="181.3" r="1.82"/>
<circle cx="586.7" cy="181.3" r="1.82"/>
<circle cx="608.0" cy="181.3" r="1.82"/>
<circle cx="629.3" cy="181.3" r="1.82"/>
<circle cx="650.7" cy="181.3" r="1.82"/>
<circle cx="672.0" cy="181.3" r="1.82"/>
<circle cx="693.3" cy="181.3" r="1.82"/>
<circle cx="714.7" cy="181.3" r="1.82"/>
<circle cx="736.0" cy="181.3" r="1.82"/>
<circle cx="757.3" cy="181.3" r="1.82"/>
<circle cx="778.7" cy="181.3" r="1.82"/>
<circle cx="800.0" cy="181.3" r="1.82"/>
<circle cx="821.3" cy="181.3" r="1.82"/>
<circle cx="842.7" cy="181.3" r="1.82"/>
<circle cx="864.0" cy="181.3" r="1.82"/>
<circle cx="885.3" cy="181.3" r="1.82"/>
<circle cx="906.7" cy="181.3" r="1.82"/>
<circle cx="928.0" cy="181.3" r="1.82"/>
<circle cx="949.3" cy="181.3" r="1.82"/>
<circle cx="970.7" cy="181.3" r="1.82"/>
<circle cx="992.0" cy="181.3" r="1.82"/>
<circle cx="1013.3" cy="181.3" r="1.82"/>
<circle cx="10.7" cy="202.7" r="1.82"/>
<circle cx="32.0" cy="202.7" r="1.82"/>
<circle cx="53.3" cy="202.7" r="1.82"/>
<circle cx="74.7" cy="202.7" r="1.82"/>
<circle cx="96.0" cy="202.7" r="1.82"/>
<circle cx="117.3" cy="202.7" r="1.82"/>
<circle cx="138.7" cy="202.7" r="1.82"/>
<circle cx="160.0" cy="202.7" r="1.82"/>
<circle cx="181.3" cy="202.7" r="1.82"/>
<circle cx="202.7" cy="202.7" r="1.82"/>
<circle cx="224.0" cy="202.7" r="1.82"/>
<circle cx="245.3" cy="202.7" r="1.82"/>
<circle cx="266.7" cy="202.7" r="1.82"/>
<circle cx="288.0" cy="202.7" r="1.82"/>
<circle cx="309.3" cy="202.7" r="1.82"/>
<circle cx="330.7" cy="202.7" r="1.82"/>
<circle cx="352.0" cy="202.7" r="1.82"/>
<circle cx="373.3" cy="202.7" r="1.82"/>
<circle cx="394.7" cy="202.7" r="1.82"/>
<circle cx="416.0" cy="202.7" r="1.82"/>
<circle cx="437.3" cy="202.7" r="1.82"/>
<circle cx="458.7" cy="202.7" r="1.82"/>
<circle cx="480.0" cy="202.7" r="1.82"/>
<circle cx="501.3" cy="202.7" r="1.82"/>
<circle cx="522.7" cy="202.7" r="1.82"/>
<circle cx="544.0" cy="202.7" r="1.82"/>
<circle cx="565.3" cy="202.7" r="1.82"/>
<circle cx="586.7" cy="202.7" r="1.82"/>
<circle cx="608.0" cy="202.7" r="1.82"/>
<circle cx="629.3" cy="202.7" r="1.82"/>
<circle cx="650.7" cy="202.7" r="1.82"/>
<circle cx="672.0" cy="202.7" r="1.82"/>
<circle cx="693.3" cy="202.7" r="1.82"/>
<circle cx="714.7" cy="202.7" r="1.82"/>
<circle cx="736.0" cy="202.7" r="1.82"/>
<circle cx="757.3" cy="202.7" r="1.82"/>
<circle cx="778.7" cy="202.7" r="1.82"/>
<circle cx="800.0" cy="202.7" r="1.82"/>
<circle cx="821.3" cy="202.7" r="1.82"/>
<circle cx="842.7" cy="202.7" r="1.82"/>
<circle cx="864.0" cy="202.7" r="1.82"/>
<circle cx="885.3" cy="202.7" r="1.82"/>
<circle cx="906.7" cy="202.7" r="1.82"/>
<circle cx="928.0" cy="202.7" r="1.82"/>
<circle cx="949.3" cy="202.7" r="1.82"/>
<circle cx="970.7" cy="202.7" r="1.82"/>
<circle cx="992.0" cy="202.7" r="1.82"/>
<circle cx="1013.3" cy="202.7" r="1.82"/>
<circle cx="10.7" cy="224.0" r="1.82"/>
<circle cx="32.0" cy="224.0" r="1.82"/>
<circle cx="53.3" cy="224.0" r="1.82"/>
<circle cx="74.7" cy="224.0" r="1.82"/>
<circle cx="96.0" cy="224.0" r="1.82"/>
<circle cx="117.3" cy="224.0" r="1.82"/>
<circle cx="138.7" cy="224.0" r="1.82"/>
<circle cx="160.0" cy="224.0" r="1.82"/>
<circle cx="181.3" cy="224.0" r="1.82"/>
<circle cx="202.7" cy="224.0" r="1.82"/>
<circle cx="224.0" cy="224.0" r="1.82"/>
<circle cx="245.3" cy="224.0" r="1.82"/>
<circle cx="266.7" cy="224.0" r="1.82"/>
<circle cx="288.0" cy="224.0" r="1.82"/>
<circle cx="309.3" cy="224.0" r="1.82"/>
<circle cx="330.7" cy="224.0" r="1.82"/>
<circle cx="352.0" cy="224.0" r="1.82"/>
<circle cx="373.3" cy="224.0" r="1.82"/>
<circle cx="394.7" cy="224.0" r="1.82"/>
<circle cx="416.0" cy="224.0" r="1.82"/>
<circle cx="437.3" cy="224.0" r="1.82"/>
<circle cx="458.7" cy="224.0" r="1.82"/>
<circle cx="480.0" cy="224.0" r="1.82"/>
<circle cx="501.3" cy="224.0" r="1.82"/>
<circle cx="522.7" cy="224.0" r="1.82"/>
<circle cx="544.0" cy="224.0" r="1.82"/>
<circle cx="565.3" cy="224.0" r="1.82"/>
<circle cx="586.7" cy="224.0" r="1.82"/>
<circle cx="608.0" cy="224.0" r="1.82"/>
<circle cx="629.3" cy="224.0" r="1.82"/>
<circle cx="650.7" cy="224.0" r="1.82"/>
<circle cx="672.0" cy="224.0" r="1.82"/>
<circle cx="693.3" cy="224.0" r="1.82"/>
<circle cx="714.7" cy="224.0" r="1.82"/>
<circle cx="736.0" cy="224.0" r="1.82"/>
<circle cx="757.3" cy="224.0" r="1.82"/>
<circle cx="778.7" cy="224.0" r="1.82"/>
<circle cx="800.0" cy="224.0" r="1.82"/>
<circle cx="821.3" cy="224.0" r="1.82"/>
<circle cx="842.7" cy="224.0" r="1.82"/>
<circle cx="864.0" cy="224.0" r="1.82"/>
<circle cx="885.3" cy="224.0" r="1.82"/>
<circle cx="906.7" cy="224.0" r="1.82"/>
<circle cx="928.0" cy="224.0" r="1.82"/>
<circle cx="949.3" cy="224.0" r="1.82"/>
<circle cx="970.7" cy="224.0" r="1.82"/>
<circle cx="992.0" cy="224.0" r="1.82"/>
<circle cx="1013.3" cy="224.0" r="1.82"/>
<circle cx="10.7" cy="245.3" r="1.82"/>
<circle cx="32.0" cy="245.3" r="1.82"/>
<circle cx="53.3" cy="245.3" r="1.82"/>
<circle cx="74.7" cy="245.3" r="1.82"/>
<circle cx="96.0" cy="245.3" r="1.82"/>
<circle cx="117.3" cy="245.3" r="1.82"/>
<circle cx="138.7" cy="245.3" r="1.82"/>
<circle cx="160.0" cy="245.3" r="1.82"/>
<circle cx="181.3" cy="245.3" r="1.82"/>
<circle cx="202.7" cy="245.3" r="1.82"/>
<circle cx="224.0" cy="245.3" r="1.82"/>
<circle cx="245.3" cy="245.3" r="1.82"/>
<circle cx="266.7" cy="245.3" r="1.82"/>
<circle cx="288.0" cy="245.3" r="1.82"/>
<circle cx="309.3" cy="245.3" r="1.82"/>
<circle cx="330.7" cy="245.3" r="1.82"/>
<circle cx="352.0" cy="245.3" r="1.82"/>
<circle cx="373.3" cy="245.3" r="1.82"/>
<circle cx="394.7" cy="245.3" r="1.82"/>
<circle cx="416.0" cy="245.3" r="1.82"/>
<circle cx="437.3" cy="245.3" r="1.82"/>
<circle cx="458.7" cy="245.3" r="1.82"/>
<circle cx="480.0" cy="245.3" r="1.82"/>
<circle cx="501.3" cy="245.3" r="1.82"/>
<circle cx="522.7" cy="245.3" r="1.82"/>
<circle cx="544.0" cy="245.3" r="1.82"/>
<circle cx="565.3" cy="245.3" r="1.82"/>
<circle cx="586.7" cy="245.3" r="1.82"/>
<circle cx="608.0" cy="245.3" r="1.82"/>
<circle cx="629.3" cy="245.3" r="1.82"/>
<circle cx="650.7" cy="245.3" r="1.82"/>
<circle cx="672.0" cy="245.3" r="1.82"/>
<circle cx="693.3" cy="245.3" r="1.82"/>
<circle cx="714.7" cy="245.3" r="1.82"/>
<circle cx="736.0" cy="245.3" r="1.82"/>
<circle cx="757.3" cy="245.3" r="1.82"/>
<circle cx="778.7" cy="245.3" r="1.82"/>
<circle cx="800.0" cy="245.3" r="1.82"/>
<circle cx="821.3" cy="245.3" r="1.82"/>
<circle cx="842.7" cy="245.3" r="1.82"/>
<circle cx="864.0" cy="245.3" r="1.82"/>
<circle cx="885.3" cy="245.3" r="1.82"/>
<circle cx="906.7" cy="245.3" r="1.82"/>
<circle cx="928.0" cy="245.3" r="1.82"/>
<circle cx="949.3" cy="245.3" r="1.82"/>
<circle cx="970.7" cy="245.3" r="1.82"/>
<circle cx="992.0" cy="245.3" r="1.82"/>
<circle cx="1013.3" cy="245.3" r="1.82"/>
<circle cx="10.7" cy="266.7" r="1.82"/>
<circle cx="32.0" cy="266.7" r="1.82"/>
<circle cx="53.3" cy="266.7" r="1.82"/>
<circle cx="74.7" cy="266.7" r="1.82"/>
<circle cx="96.0" cy="266.7" r="1.82"/>
<circle cx="117.3" cy="266.7" r="1.82"/>
<circle cx="138.7" cy="266.7" r="1.82"/>
<circle cx="160.0" cy="266.7" r="1.82"/>
<circle cx="181.3" cy="266.7" r="1.82"/>
<circle cx="202.7" cy="266.7" r="1.82"/>
<circle cx="224.0" cy="266.7" r="1.82"/>
<circle cx="245.3" cy="266.7" r="1.82"/>
<circle cx="266.7" cy="266.7" r="1.82"/>
<circle cx="288.0" cy="266.7" r="1.82"/>
<circle cx="309.3" cy="266.7" r="1.82"/>
<circle cx="330.7" cy="266.7" r="1.82"/>
<circle cx="352.0" cy="266.7" r="1.82"/>
<circle cx="373.3" cy="266.7" r="1.82"/>
<circle cx="394.7" cy="266.7" r="1.82"/>
<circle cx="416.0" cy="266.7" r="1.82"/>
<circle cx="437.3" cy="266.7" r="1.82"/>
<circle cx="458.7" cy="266.7" r="1.82"/>
<circle cx="480.0" cy="266.7" r="1.82"/>
<circle cx="501.3" cy="266.7" r="1.82"/>
<circle cx="522.7" cy="266.7" r="1.82"/>
<circle cx="544.0" cy="266.7" r="1.82"/>
<circle cx="565.3" cy="266.7" r="1.82"/>
<circle cx="586.7" cy="266.7" r="1.82"/>
<circle cx="608.0" cy="266.7" r="1.82"/>
<circle cx="629.3" cy="266.7" r="1.82"/>
<circle cx="650.7" cy="266.7" r="1.82"/>
<circle cx="672.0" cy="266.7" r="1.82"/>
<circle cx="693.3" cy="266.7" r="1.82"/>
<circle cx="714.7" cy="266.7" r="1.82"/>
<circle cx="736.0" cy="266.7" r="1.82"/>
<circle cx="757.3" cy="266.7" r="1.82"/>
<circle cx="778.7" cy="266.7" r="1.82"/>
<circle cx="800.0" cy="266.7" r="1.82"/>
<circle cx="821.3" cy="266.7" r="1.82"/>
<circle cx="842.7" cy="266.7" r="1.82"/>
<circle cx="864.0" cy="266.7" r="1.82"/>
<circle cx="885.3" cy="266.7" r="1.82"/>
<circle cx="906.7" cy="266.7" r="1.82"/>
<circle cx="928.0" cy="266.7" r="1.82"/>
<circle cx="949.3" cy="266.7" r="1.82"/>
<circle cx="970.7" cy="266.7" r="1.82"/>
<circle cx="992.0" cy="266.7" r="1.82"/>
<circle cx="1013.3" cy="266.7" r="1.82"/>
<circle cx="10.7" cy="288.0" r="1.82"/>
<circle cx="32.0" cy="288.0" r="1.82"/>
<circle cx="53.3" cy="288.0" r="1.82"/>
<circle cx="74.7" cy="288.0" r="1.82"/>
<circle cx="96.0" cy="288.0" r="1.82"/>
<circle cx="117.3" cy="288.0" r="1.82"/>
<circle cx="138.7" cy="288.0" r="1.82"/>
<circle cx="160.0" cy="288.0" r="1.82"/>
<circle cx="181.3" cy="288.0" r="1.82"/>
<circle cx="202.7" cy="288.0" r="1.82"/>
<circle cx="224.0" cy="288.0" r="1.82"/>
<circle cx="245.3" cy="288.0" r="1.82"/>
<circle cx="266.7" cy="288.0" r="1.82"/>
<circle cx="288.0" cy="288.0" r="1.82"/>
<circle cx="309.3" cy="288.0" r="1.82"/>
<circle cx="330.7" cy="288.0" r="1.82"/>
<circle cx="352.0" cy="288.0" r="1.82"/>
<circle cx="373.3" cy="288.0" r="1.82"/>
<circle cx="394.7" cy="288.0" r="1.82"/>
<circle cx="416.0" cy="288.0" r="1.82"/>
<circle cx="437.3" cy="288.0" r="1.82"/>
<circle cx="458.7" cy="288.0" r="1.82"/>
<circle cx="480.0" cy="288.0" r="1.82"/>
<circle cx="501.3" cy="288.0" r="3.79"/>
<circle cx="522.7" cy="288.0" r="3.79"/>
<circle cx="544.0" cy="288.0" r="1.82"/>
<circle cx="565.3" cy="288.0" r="1.82"/>
<circle cx="586.7" cy="288.0" r="1.82"/>
<circle cx="608.0" cy="288.0" r="1.82"/>
<circle cx="629.3" cy="288.0" r="1.82"/>
<circle cx="650.7" cy="288.0" r="1.82"/>
<circle cx="672.0" cy="288.0" r="1.82"/>
<circle cx="693.3" cy="288.0" r="1.82"/>
<circle cx="714.7" cy="288.0" r="1.82"/>
<circle cx="736.0" cy="288.0" r="1.82"/>
<circle cx="757.3" cy="288.0" r="1.82"/>
<circle cx="778.7" cy="288.0" r="1.82"/>
<circle cx="800.0" cy="288.0" r="1.82"/>
<circle cx="821.3" cy="288.0" r="1.82"/>
<circle cx="842.7" cy="288.0" r="1.82"/>
<circle cx="864.0" cy="288.0" r="1.82"/>
<circle cx="885.3" cy="288.0" r="1.82"/>
<circle cx="906.7" cy="288.0" r="1.82"/>
<circle cx="928.0" cy="288.0" r="1.82"/>
<circle cx="949.3" cy="288.0" r="1.82"/>
<circle cx="970.7" cy="288.0" r="1.82"/>
<circle cx="992.0" cy="288.0" r="1.82"/>
<circle cx="1013.3" cy="288.0" r="1.82"/>
<circle cx="10.7" cy="309.3" r="1.82"/>
<circle cx="32.0" cy="309.3" r="1.82"/>
<circle cx="53.3" cy="309.3" r="1.82"/>
<circle cx="74.7" cy="309.3" r="1.82"/>
<circle cx="96.0" cy="309.3" r="1.82"/>
<circle cx="117.3" cy="309.3" r="1.82"/>
<circle cx="138.7" cy="309.3" r="1.82"/>
<circle cx="160.0" cy="309.3" r="1.82"/>
<circle cx="181.3" cy="309.3" r="1.82"/>
<circle cx="202.7" cy="309.3" r="1.82"/>
<circle cx="224.0" cy="309.3" r="1.82"/>
<circle cx="245.3" cy="309.3" r="1.82"/>
<circle cx="266.7" cy="309.3" r="1.82"/>
<circle cx="288.0" cy="309.3" r="1.82"/>
<circle cx="309.3" cy="309.3" r="1.82"/>
<circle cx="330.7" cy="309.3" r="1.82"/>
<circle cx="352.0" cy="309.3" r="1.82"/>
<circle cx="373.3" cy="309.3" r="1.82"/>
<circle cx="394.7" cy="309.3" r="3.92"/>
<circle cx="416.0" cy="309.3" r="4.63"/>
<circle cx="437.3" cy="309.3" r="5.37"/>
<circle cx="458.7" cy="309.3" r="5.96"/>
<circle cx="480.0" cy="309.3" r="6.35"/>
<circle cx="501.3" cy="309.3" r="6.54"/>
<circle cx="522.7" cy="309.3" r="6.54"/>
<circle cx="544.0" cy="309.3" r="6.35"/>
<circle cx="565.3" cy="309.3" r="5.96"/>
<circle cx="586.7" cy="309.3" r="5.37"/>
<circle cx="608.0" cy="309.3" r="4.63"/>
<circle cx="629.3" cy="309.3" r="3.92"/>
<circle cx="650.7" cy="309.3" r="1.82"/>
<circle cx="672.0" cy="309.3" r="1.82"/>
<circle cx="693.3" cy="309.3" r="1.82"/>
<circle cx="714.7" cy="309.3" r="1.82"/>
<circle cx="736.0" cy="309.3" r="1.82"/>
<circle cx="757.3" cy="309.3" r="1.82"/>
<circle cx="778.7" cy="309.3" r="1.82"/>
<circle cx="800.0" cy="309.3" r="1.82"/>
<circle cx="821.3" cy="309.3" r="1.82"/>
<circle cx="842.7" cy="309.3" r="1.82"/>
<circle cx="864.0" cy="309.3" r="1.82"/>
<circle cx="885.3" cy="309.3" r="1.82"/>
<circle cx="906.7" cy="309.3" r="1.82"/>
<circle cx="928.0" cy="309.3" r="1.82"/>
<circle cx="949.3" cy="309.3" r="1.82"/>
<circle cx="970.7" cy="309.3" r="1.82"/>
<circle cx="992.0" cy="309.3" r="1.82"/>
<circle cx="1013.3" cy="309.3" r="1.82"/>
<circle cx="10.7" cy="330.7" r="1.82"/>
<circle cx="32.0" cy="330.7" r="1.82"/>
<circle cx="53.3" cy="330.7" r="1.82"/>
<circle cx="74.7" cy="330.7" r="1.82"/>
<circle cx="96.0" cy="330.7" r="1.82"/>
<circle cx="117.3" cy="330.7" r="1.82"/>
<circle cx="138.7" cy="330.7" r="1.82"/>
<circle cx="160.0" cy="330.7" r="1.82"/>
<circle cx="181.3" cy="330.7" r="1.82"/>
<circle cx="202.7" cy="330.7" r="1.82"/>
<circle cx="224.0" cy="330.7" r="1.82"/>
<circle cx="245.3" cy="330.7" r="1.82"/>
<circle cx="266.7" cy="330.7" r="1.82"/>
<circle cx="288.0" cy="330.7" r="1.82"/>
<circle cx="309.3" cy="330.7" r="1.82"/>
<circle cx="330.7" cy="330.7" r="1.82"/>
<circle cx="352.0" cy="330.7" r="4.64"/>
<circle cx="373.3" cy="330.7" r="6.13"/>
<circle cx="394.7" cy="330.7" r="7.35"/>
<circle cx="416.0" cy="330.7" r="8.20"/>
<circle cx="437.3" cy="330.7" r="8.73"/>
<circle cx="458.7" cy="330.7" r="9.04"/>
<circle cx="480.0" cy="330.7" r="9.19"/>
<circle cx="501.3" cy="330.7" r="9.25"/>
<circle cx="522.7" cy="330.7" r="9.25"/>
<circle cx="544.0" cy="330.7" r="9.19"/>
<circle cx="565.3" cy="330.7" r="9.04"/>
<circle cx="586.7" cy="330.7" r="8.73"/>
<circle cx="608.0" cy="330.7" r="8.20"/>
<circle cx="629.3" cy="330.7" r="7.35"/>
<circle cx="650.7" cy="330.7" r="6.13"/>
<circle cx="672.0" cy="330.7" r="4.64"/>
<circle cx="693.3" cy="330.7" r="1.82"/>
<circle cx="714.7" cy="330.7" r="1.82"/>
<circle cx="736.0" cy="330.7" r="1.82"/>
<circle cx="757.3" cy="330.7" r="1.82"/>
<circle cx="778.7" cy="330.7" r="1.82"/>
<circle cx="800.0" cy="330.7" r="1.82"/>
<circle cx="821.3" cy="330.7" r="1.82"/>
<circle cx="842.7" cy="330.7" r="1.82"/>
<circle cx="864.0" cy="330.7" r="1.82"/>
<circle cx="885.3" cy="330.7" r="1.82"/>
<circle cx="906.7" cy="330.7" r="1.82"/>
<circle cx="928.0" cy="330.7" r="1.82"/>
<circle cx="949.3" cy="330.7" r="1.82"/>
<circle cx="970.7" cy="330.7" r="1.82"/>
<circle cx="992.0" cy="330.7" r="1.82"/>
<circle cx="1013.3" cy="330.7" r="1.82"/>
<circle cx="10.7" cy="352.0" r="1.82"/>
<circle cx="32.0" cy="352.0" r="1.82"/>
<circle cx="53.3" cy="352.0" r="1.82"/>
<circle cx="74.7" cy="352.0" r="1.82"/>
<circle cx="96.0" cy="352.0" r="1.82"/>
<circle cx="117.3" cy="352.0" r="1.82"/>
<circle cx="138.7" cy="352.0" r="1.82"/>
<circle cx="160.0" cy="352.0" r="1.82"/>
<circle cx="181.3" cy="352.0" r="1.82"/>
<circle cx="202.7" cy="352.0" r="1.82"/>
<circle cx="224.0" cy="352.0" r="1.82"/>
<circle cx="245.3" cy="352.0" r="1.82"/>
<circle cx="266.7" cy="352.0" r="1.82"/>
<circle cx="288.0" cy="352.0" r="1.82"/>
<circle cx="309.3" cy="352.0" r="4.88"/>
<circle cx="330.7" cy="352.0" r="7.01"/>
<circle cx="352.0" cy="352.0" r="8.49"/>
<circle cx="373.3" cy="352.0" r="9.23"/>
<circle cx="394.7" cy="352.0" r="9.40"/>
<circle cx="416.0" cy="352.0" r="9.42"/>
<circle cx="437.3" cy="352.0" r="2.53"/>
<circle cx="458.7" cy="352.0" r="3.06"/>
<circle cx="480.0" cy="352.0" r="3.47"/>
<circle cx="501.3" cy="352.0" r="3.57"/>
<circle cx="522.7" cy="352.0" r="3.37"/>
<circle cx="544.0" cy="352.0" r="2.94"/>
<circle cx="565.3" cy="352.0" r="2.37"/>
<circle cx="586.7" cy="352.0" r="1.87"/>
<circle cx="608.0" cy="352.0" r="9.42"/>
<circle cx="629.3" cy="352.0" r="9.40"/>
<circle cx="650.7" cy="352.0" r="9.23"/>
<circle cx="672.0" cy="352.0" r="8.49"/>
<circle cx="693.3" cy="352.0" r="7.01"/>
<circle cx="714.7" cy="352.0" r="4.88"/>
<circle cx="736.0" cy="352.0" r="1.82"/>
<circle cx="757.3" cy="352.0" r="1.82"/>
<circle cx="778.7" cy="352.0" r="1.82"/>
<circle cx="800.0" cy="352.0" r="1.82"/>
<circle cx="821.3" cy="352.0" r="1.82"/>
<circle cx="842.7" cy="352.0" r="1.82"/>
<circle cx="864.0" cy="352.0" r="1.82"/>
<circle cx="885.3" cy="352.0" r="1.82"/>
<circle cx="906.7" cy="352.0" r="1.82"/>
<circle cx="928.0" cy="352.0" r="1.82"/>
<circle cx="949.3" cy="352.0" r="1.82"/>
<circle cx="970.7" cy="352.0" r="1.82"/>
<circle cx="992.0" cy="352.0" r="1.82"/>
<circle cx="1013.3" cy="352.0" r="1.82"/>
<circle cx="10.7" cy="373.3" r="1.82"/>
<circle cx="32.0" cy="373.3" r="1.82"/>
<circle cx="53.3" cy="373.3" r="1.82"/>
<circle cx="74.7" cy="373.3" r="1.82"/>
<circle cx="96.0" cy="373.3" r="1.82"/>
<circle cx="117.3" cy="373.3" r="1.82"/>
<circle cx="138.7" cy="373.3" r="1.82"/>
<circle cx="160.0" cy="373.3" r="1.82"/>
<circle cx="181.3" cy="373.3" r="1.82"/>
<circle cx="202.7" cy="373.3" r="1.82"/>
<circle cx="224.0" cy="373.3" r="1.82"/>
<circle cx="245.3" cy="373.3" r="1.82"/>
<circle cx="266.7" cy="373.3" r="4.20"/>
<circle cx="288.0" cy="373.3" r="7.07"/>
<circle cx="309.3" cy="373.3" r="8.87"/>
<circle cx="330.7" cy="373.3" r="9.28"/>
<circle cx="352.0" cy="373.3" r="9.36"/>
<circle cx="373.3" cy="373.3" r="9.41"/>
<circle cx="394.7" cy="373.3" r="9.42"/>
<circle cx="416.0" cy="373.3" r="3.26"/>
<circle cx="437.3" cy="373.3" r="4.38"/>
<circle cx="458.7" cy="373.3" r="8.85"/>
<circle cx="480.0" cy="373.3" r="8.99"/>
<circle cx="501.3" cy="373.3" r="8.99"/>
<circle cx="522.7" cy="373.3" r="4.44"/>
<circle cx="544.0" cy="373.3" r="8.41"/>
<circle cx="565.3" cy="373.3" r="3.72"/>
<circle cx="586.7" cy="373.3" r="3.05"/>
<circle cx="608.0" cy="373.3" r="2.23"/>
<circle cx="629.3" cy="373.3" r="9.42"/>
<circle cx="650.7" cy="373.3" r="9.41"/>
<circle cx="672.0" cy="373.3" r="9.36"/>
<circle cx="693.3" cy="373.3" r="9.28"/>
<circle cx="714.7" cy="373.3" r="8.87"/>
<circle cx="736.0" cy="373.3" r="7.07"/>
<circle cx="757.3" cy="373.3" r="4.20"/>
<circle cx="778.7" cy="373.3" r="1.82"/>
<circle cx="800.0" cy="373.3" r="1.82"/>
<circle cx="821.3" cy="373.3" r="1.82"/>
<circle cx="842.7" cy="373.3" r="1.82"/>
<circle cx="864.0" cy="373.3" r="1.82"/>
<circle cx="885.3" cy="373.3" r="1.82"/>
<circle cx="906.7" cy="373.3" r="1.82"/>
<circle cx="928.0" cy="373.3" r="1.82"/>
<circle cx="949.3" cy="373.3" r="1.82"/>
<circle cx="970.7" cy="373.3" r="1.82"/>
<circle cx="992.0" cy="373.3" r="1.82"/>
<circle cx="1013.3" cy="373.3" r="1.82"/>
<circle cx="10.7" cy="394.7" r="1.82"/>
<circle cx="32.0" cy="394.7" r="1.82"/>
<circle cx="53.3" cy="394.7" r="1.82"/>
<circle cx="74.7" cy="394.7" r="1.82"/>
<circle cx="96.0" cy="394.7" r="1.82"/>
<circle cx="117.3" cy="394.7" r="1.82"/>
<circle cx="138.7" cy="394.7" r="1.82"/>
<circle cx="160.0" cy="394.7" r="1.82"/>
<circle cx="181.3" cy="394.7" r="1.82"/>
<circle cx="202.7" cy="394.7" r="1.82"/>
<circle cx="224.0" cy="394.7" r="1.82"/>
<circle cx="245.3" cy="394.7" r="5.96"/>
<circle cx="266.7" cy="394.7" r="8.72"/>
<circle cx="288.0" cy="394.7" r="9.12"/>
<circle cx="309.3" cy="394.7" r="9.25"/>
<circle cx="330.7" cy="394.7" r="9.34"/>
<circle cx="352.0" cy="394.7" r="9.40"/>
<circle cx="373.3" cy="394.7" r="9.42"/>
<circle cx="394.7" cy="394.7" r="3.59"/>
<circle cx="416.0" cy="394.7" r="5.02"/>
<circle cx="437.3" cy="394.7" r="9.32"/>
<circle cx="458.7" cy="394.7" r="9.32"/>
<circle cx="480.0" cy="394.7" r="9.32"/>
<circle cx="501.3" cy="394.7" r="9.32"/>
<circle cx="522.7" cy="394.7" r="4.74"/>
<circle cx="544.0" cy="394.7" r="4.36"/>
<circle cx="565.3" cy="394.7" r="3.97"/>
<circle cx="586.7" cy="394.7" r="3.63"/>
<circle cx="608.0" cy="394.7" r="3.25"/>
<circle cx="629.3" cy="394.7" r="2.40"/>
<circle cx="650.7" cy="394.7" r="9.42"/>
<circle cx="672.0" cy="394.7" r="9.40"/>
<circle cx="693.3" cy="394.7" r="9.34"/>
<circle cx="714.7" cy="394.7" r="9.25"/>
<circle cx="736.0" cy="394.7" r="9.12"/>
<circle cx="757.3" cy="394.7" r="8.72"/>
<circle cx="778.7" cy="394.7" r="5.96"/>
<circle cx="800.0" cy="394.7" r="1.82"/>
<circle cx="821.3" cy="394.7" r="1.82"/>
<circle cx="842.7" cy="394.7" r="1.82"/>
<circle cx="864.0" cy="394.7" r="1.82"/>
<circle cx="885.3" cy="394.7" r="1.82"/>
<circle cx="906.7" cy="394.7" r="1.82"/>
<circle cx="928.0" cy="394.7" r="1.82"/>
<circle cx="949.3" cy="394.7" r="1.82"/>
<circle cx="970.7" cy="394.7" r="1.82"/>
<circle cx="992.0" cy="394.7" r="1.82"/>
<circle cx="1013.3" cy="394.7" r="1.82"/>
<circle cx="10.7" cy="416.0" r="1.82"/>
<circle cx="32.0" cy="416.0" r="1.82"/>
<circle cx="53.3" cy="416.0" r="1.82"/>
<circle cx="74.7" cy="416.0" r="1.82"/>
<circle cx="96.0" cy="416.0" r="1.82"/>
<circle cx="117.3" cy="416.0" r="1.82"/>
<circle cx="138.7" cy="416.0" r="1.82"/>
<circle cx="160.0" cy="416.0" r="1.82"/>
<circle cx="181.3" cy="416.0" r="1.82"/>
<circle cx="202.7" cy="416.0" r="3.30"/>
<circle cx="224.0" cy="416.0" r="7.64"/>
<circle cx="245.3" cy="416.0" r="8.82"/>
<circle cx="266.7" cy="416.0" r="9.04"/>
<circle cx="288.0" cy="416.0" r="9.19"/>
<circle cx="309.3" cy="416.0" r="9.30"/>
<circle cx="330.7" cy="416.0" r="9.38"/>
<circle cx="352.0" cy="416.0" r="9.42"/>
<circle cx="373.3" cy="416.0" r="3.26"/>
<circle cx="394.7" cy="416.0" r="5.02"/>
<circle cx="416.0" cy="416.0" r="5.48"/>
<circle cx="437.3" cy="416.0" r="10.24"/>
<circle cx="458.7" cy="416.0" r="10.24"/>
<circle cx="480.0" cy="416.0" r="9.32"/>
<circle cx="501.3" cy="416.0" r="9.32"/>
<circle cx="522.7" cy="416.0" r="4.95"/>
<circle cx="544.0" cy="416.0" r="4.55"/>
<circle cx="565.3" cy="416.0" r="4.12"/>
<circle cx="586.7" cy="416.0" r="3.73"/>
<circle cx="608.0" cy="416.0" r="3.45"/>
<circle cx="629.3" cy="416.0" r="3.21"/>
<circle cx="650.7" cy="416.0" r="2.23"/>
<circle cx="672.0" cy="416.0" r="9.42"/>
<circle cx="693.3" cy="416.0" r="9.38"/>
<circle cx="714.7" cy="416.0" r="9.30"/>
<circle cx="736.0" cy="416.0" r="9.19"/>
<circle cx="757.3" cy="416.0" r="9.04"/>
<circle cx="778.7" cy="416.0" r="8.82"/>
<circle cx="800.0" cy="416.0" r="7.64"/>
<circle cx="821.3" cy="416.0" r="3.30"/>
<circle cx="842.7" cy="416.0" r="1.82"/>
<circle cx="864.0" cy="416.0" r="1.82"/>
<circle cx="885.3" cy="416.0" r="1.82"/>
<circle cx="906.7" cy="416.0" r="1.82"/>
<circle cx="928.0" cy="416.0" r="1.82"/>
<circle cx="949.3" cy="416.0" r="1.82"/>
<circle cx="970.7" cy="416.0" r="1.82"/>
<circle cx="992.0" cy="416.0" r="1.82"/>
<circle cx="1013.3" cy="416.0" r="1.82"/>
<circle cx="10.7" cy="437.3" r="1.82"/>
<circle cx="32.0" cy="437.3" r="1.82"/>
<circle cx="53.3" cy="437.3" r="1.82"/>
<circle cx="74.7" cy="437.3" r="1.82"/>
<circle cx="96.0" cy="437.3" r="1.82"/>
<circle cx="117.3" cy="437.3" r="1.82"/>
<circle cx="138.7" cy="437.3" r="1.82"/>
<circle cx="160.0" cy="437.3" r="1.82"/>
<circle cx="181.3" cy="437.3" r="3.83"/>
<circle cx="202.7" cy="437.3" r="8.11"/>
<circle cx="224.0" cy="437.3" r="8.53"/>
<circle cx="245.3" cy="437.3" r="8.87"/>
<circle cx="266.7" cy="437.3" r="9.10"/>
<circle cx="288.0" cy="437.3" r="9.24"/>
<circle cx="309.3" cy="437.3" r="9.34"/>
<circle cx="330.7" cy="437.3" r="9.41"/>
<circle cx="352.0" cy="437.3" r="2.53"/>
<circle cx="373.3" cy="437.3" r="4.38"/>
<circle cx="394.7" cy="437.3" r="5.37"/>
<circle cx="416.0" cy="437.3" r="10.24"/>
<circle cx="437.3" cy="437.3" r="10.24"/>
<circle cx="458.7" cy="437.3" r="10.24"/>
<circle cx="480.0" cy="437.3" r="9.32"/>
<circle cx="501.3" cy="437.3" r="9.32"/>
<circle cx="522.7" cy="437.3" r="5.06"/>
<circle cx="544.0" cy="437.3" r="4.65"/>
<circle cx="565.3" cy="437.3" r="4.20"/>
<circle cx="586.7" cy="437.3" r="3.79"/>
<circle cx="608.0" cy="437.3" r="3.48"/>
<circle cx="629.3" cy="437.3" r="3.36"/>
<circle cx="650.7" cy="437.3" r="2.93"/>
<circle cx="672.0" cy="437.3" r="3.88"/>
<circle cx="693.3" cy="437.3" r="9.41"/>
<circle cx="714.7" cy="437.3" r="9.34"/>
<circle cx="736.0" cy="437.3" r="9.24"/>
<circle cx="757.3" cy="437.3" r="9.10"/>
<circle cx="778.7" cy="437.3" r="8.87"/>
<circle cx="800.0" cy="437.3" r="8.53"/>
<circle cx="821.3" cy="437.3" r="8.11"/>
<circle cx="842.7" cy="437.3" r="3.83"/>
<circle cx="864.0" cy="437.3" r="1.82"/>
<circle cx="885.3" cy="437.3" r="1.82"/>
<circle cx="906.7" cy="437.3" r="1.82"/>
<circle cx="928.0" cy="437.3" r="1.82"/>
<circle cx="949.3" cy="437.3" r="1.82"/>
<circle cx="970.7" cy="437.3" r="1.82"/>
<circle cx="992.0" cy="437.3" r="1.82"/>
<circle cx="1013.3" cy="437.3" r="1.82"/>
<circle cx="10.7" cy="458.7" r="1.82"/>
<circle cx="32.0" cy="458.7" r="1.82"/>
<circle cx="53.3" cy="458.7" r="1.82"/>
<circle cx="74.7" cy="458.7" r="1.82"/>
<circle cx="96.0" cy="458.7" r="1.82"/>
<circle cx="117.3" cy="458.7" r="1.82"/>
<circle cx="138.7" cy="458.7" r="1.82"/>
<circle cx="160.0" cy="458.7" r="4.94"/>
<circle cx="181.3" cy="458.7" r="7.71"/>
<circle cx="202.7" cy="458.7" r="8.15"/>
<circle cx="224.0" cy="458.7" r="8.56"/>
<circle cx="245.3" cy="458.7" r="8.91"/>
<circle cx="266.7" cy="458.7" r="9.14"/>
<circle cx="288.0" cy="458.7" r="9.27"/>
<circle cx="309.3" cy="458.7" r="9.37"/>
<circle cx="330.7" cy="458.7" r="9.42"/>
<circle cx="352.0" cy="458.7" r="3.06"/>
<circle cx="373.3" cy="458.7" r="4.95"/>
<circle cx="394.7" cy="458.7" r="5.37"/>
<circle cx="416.0" cy="458.7" r="5.59"/>
<circle cx="437.3" cy="458.7" r="9.54"/>
<circle cx="458.7" cy="458.7" r="9.54"/>
<circle cx="480.0" cy="458.7" r="9.54"/>
<circle cx="501.3" cy="458.7" r="5.40"/>
<circle cx="522.7" cy="458.7" r="5.07"/>
<circle cx="544.0" cy="458.7" r="4.65"/>
<circle cx="565.3" cy="458.7" r="4.21"/>
<circle cx="586.7" cy="458.7" r="3.79"/>
<circle cx="608.0" cy="458.7" r="3.48"/>
<circle cx="629.3" cy="458.7" r="3.36"/>
<circle cx="650.7" cy="458.7" r="3.30"/>
<circle cx="672.0" cy="458.7" r="4.68"/>
<circle cx="693.3" cy="458.7" r="9.42"/>
<circle cx="714.7" cy="458.7" r="9.37"/>
<circle cx="736.0" cy="458.7" r="9.27"/>
<circle cx="757.3" cy="458.7" r="9.14"/>
<circle cx="778.7" cy="458.7" r="8.91"/>
<circle cx="800.0" cy="458.7" r="8.56"/>
<circle cx="821.3" cy="458.7" r="8.15"/>
<circle cx="842.7" cy="458.7" r="7.71"/>
<circle cx="864.0" cy="458.7" r="4.94"/>
<circle cx="885.3" cy="458.7" r="1.82"/>
<circle cx="906.7" cy="458.7" r="1.82"/>
<circle cx="928.0" cy="458.7" r="1.82"/>
<circle cx="949.3" cy="458.7" r="1.82"/>
<circle cx="970.7" cy="458.7" r="1.82"/>
<circle cx="992.0" cy="458.7" r="1.82"/>
<circle cx="1013.3" cy="458.7" r="1.82"/>
<circle cx="10.7" cy="480.0" r="1.82"/>
<circle cx="32.0" cy="480.0" r="1.82"/>
<circle cx="53.3" cy="480.0" r="1.82"/>
<circle cx="74.7" cy="480.0" r="1.82"/>
<circle cx="96.0" cy="480.0" r="1.82"/>
<circle cx="117.3" cy="480.0" r="1.82"/>
<circle cx="138.7" cy="480.0" r="6.37"/>
<circle cx="160.0" cy="480.0" r="7.32"/>
<circle cx="181.3" cy="480.0" r="7.73"/>
<circle cx="202.7" cy="480.0" r="8.17"/>
<circle cx="224.0" cy="480.0" r="8.59"/>
<circle cx="245.3" cy="480.0" r="8.94"/>
<circle cx="266.7" cy="480.0" r="9.16"/>
<circle cx="288.0" cy="480.0" r="9.29"/>
<circle cx="309.3" cy="480.0" r="9.38"/>
<circle cx="330.7" cy="480.0" r="9.42"/>
<circle cx="352.0" cy="480.0" r="3.47"/>
<circle cx="373.3" cy="480.0" r="4.93"/>
<circle cx="394.7" cy="480.0" r="5.27"/>
<circle cx="416.0" cy="480.0" r="5.49"/>
<circle cx="437.3" cy="480.0" r="5.60"/>
<circle cx="458.7" cy="480.0" r="5.60"/>
<circle cx="480.0" cy="480.0" r="1.05"/>
<circle cx="501.3" cy="480.0" r="1.05"/>
<circle cx="522.7" cy="480.0" r="1.05"/>
<circle cx="544.0" cy="480.0" r="1.05"/>
<circle cx="565.3" cy="480.0" r="4.13"/>
<circle cx="586.7" cy="480.0" r="3.74"/>
<circle cx="608.0" cy="480.0" r="3.45"/>
<circle cx="629.3" cy="480.0" r="3.36"/>
<circle cx="650.7" cy="480.0" r="3.36"/>
<circle cx="672.0" cy="480.0" r="2.58"/>
<circle cx="693.3" cy="480.0" r="9.42"/>
<circle cx="714.7" cy="480.0" r="9.38"/>
<circle cx="736.0" cy="480.0" r="9.29"/>
<circle cx="757.3" cy="480.0" r="9.16"/>
<circle cx="778.7" cy="480.0" r="8.94"/>
<circle cx="800.0" cy="480.0" r="8.59"/>
<circle cx="821.3" cy="480.0" r="8.17"/>
<circle cx="842.7" cy="480.0" r="7.73"/>
<circle cx="864.0" cy="480.0" r="7.32"/>
<circle cx="885.3" cy="480.0" r="6.37"/>
<circle cx="906.7" cy="480.0" r="1.82"/>
<circle cx="928.0" cy="480.0" r="1.82"/>
<circle cx="949.3" cy="480.0" r="1.82"/>
<circle cx="970.7" cy="480.0" r="1.82"/>
<circle cx="992.0" cy="480.0" r="1.82"/>
<circle cx="1013.3" cy="480.0" r="1.82"/>
<circle cx="10.7" cy="501.3" r="1.82"/>
<circle cx="32.0" cy="501.3" r="1.82"/>
<circle cx="53.3" cy="501.3" r="1.82"/>
<circle cx="74.7" cy="501.3" r="1.82"/>
<circle cx="96.0" cy="501.3" r="1.82"/>
<circle cx="117.3" cy="501.3" r="6.78"/>
<circle cx="138.7" cy="501.3" r="6.99"/>
<circle cx="160.0" cy="501.3" r="7.33"/>
<circle cx="181.3" cy="501.3" r="7.74"/>
<circle cx="202.7" cy="501.3" r="8.18"/>
<circle cx="224.0" cy="501.3" r="8.60"/>
<circle cx="245.3" cy="501.3" r="8.95"/>
<circle cx="266.7" cy="501.3" r="9.17"/>
<circle cx="288.0" cy="501.3" r="9.30"/>
<circle cx="309.3" cy="501.3" r="9.39"/>
<circle cx="330.7" cy="501.3" r="9.42"/>
<circle cx="352.0" cy="501.3" r="3.57"/>
<circle cx="373.3" cy="501.3" r="4.73"/>
<circle cx="394.7" cy="501.3" r="5.05"/>
<circle cx="416.0" cy="501.3" r="5.28"/>
<circle cx="437.3" cy="501.3" r="5.39"/>
<circle cx="458.7" cy="501.3" r="5.40"/>
<circle cx="480.0" cy="501.3" r="1.05"/>
<circle cx="501.3" cy="501.3" r="1.05"/>
<circle cx="522.7" cy="501.3" r="1.05"/>
<circle cx="544.0" cy="501.3" r="1.05"/>
<circle cx="565.3" cy="501.3" r="3.99"/>
<circle cx="586.7" cy="501.3" r="3.64"/>
<circle cx="608.0" cy="501.3" r="3.41"/>
<circle cx="629.3" cy="501.3" r="3.36"/>
<circle cx="650.7" cy="501.3" r="3.36"/>
<circle cx="672.0" cy="501.3" r="2.76"/>
<circle cx="693.3" cy="501.3" r="9.42"/>
<circle cx="714.7" cy="501.3" r="9.39"/>
<circle cx="736.0" cy="501.3" r="9.30"/>
<circle cx="757.3" cy="501.3" r="9.17"/>
<circle cx="778.7" cy="501.3" r="8.95"/>
<circle cx="800.0" cy="501.3" r="8.60"/>
<circle cx="821.3" cy="501.3" r="8.18"/>
<circle cx="842.7" cy="501.3" r="7.74"/>
<circle cx="864.0" cy="501.3" r="7.33"/>
<circle cx="885.3" cy="501.3" r="6.99"/>
<circle cx="906.7" cy="501.3" r="6.78"/>
<circle cx="928.0" cy="501.3" r="1.82"/>
<circle cx="949.3" cy="501.3" r="1.82"/>
<circle cx="970.7" cy="501.3" r="1.82"/>
<circle cx="992.0" cy="501.3" r="1.82"/>
<circle cx="1013.3" cy="501.3" r="1.82"/>
<circle cx="10.7" cy="522.7" r="1.82"/>
<circle cx="32.0" cy="522.7" r="1.82"/>
<circle cx="53.3" cy="522.7" r="1.82"/>
<circle cx="74.7" cy="522.7" r="1.82"/>
<circle cx="96.0" cy="522.7" r="1.82"/>
<circle cx="117.3" cy="522.7" r="6.78"/>
<circle cx="138.7" cy="522.7" r="6.99"/>
<circle cx="160.0" cy="522.7" r="7.33"/>
<circle cx="181.3" cy="522.7" r="7.74"/>
<circle cx="202.7" cy="522.7" r="8.18"/>
<circle cx="224.0" cy="522.7" r="8.60"/>
<circle cx="245.3" cy="522.7" r="8.95"/>
<circle cx="266.7" cy="522.7" r="9.17"/>
<circle cx="288.0" cy="522.7" r="9.30"/>
<circle cx="309.3" cy="522.7" r="9.39"/>
<circle cx="330.7" cy="522.7" r="9.42"/>
<circle cx="352.0" cy="522.7" r="3.37"/>
<circle cx="373.3" cy="522.7" r="4.44"/>
<circle cx="394.7" cy="522.7" r="4.74"/>
<circle cx="416.0" cy="522.7" r="4.95"/>
<circle cx="437.3" cy="522.7" r="5.06"/>
<circle cx="458.7" cy="522.7" r="5.07"/>
<circle cx="480.0" cy="522.7" r="1.05"/>
<circle cx="501.3" cy="522.7" r="1.05"/>
<circle cx="522.7" cy="522.7" r="1.05"/>
<circle cx="544.0" cy="522.7" r="1.05"/>
<circle cx="565.3" cy="522.7" r="3.80"/>
<circle cx="586.7" cy="522.7" r="3.51"/>
<circle cx="608.0" cy="522.7" r="3.37"/>
<circle cx="629.3" cy="522.7" r="3.36"/>
<circle cx="650.7" cy="522.7" r="3.36"/>
<circle cx="672.0" cy="522.7" r="2.76"/>
<circle cx="693.3" cy="522.7" r="9.42"/>
<circle cx="714.7" cy="522.7" r="9.39"/>
<circle cx="736.0" cy="522.7" r="9.30"/>
<circle cx="757.3" cy="522.7" r="9.17"/>
<circle cx="778.7" cy="522.7" r="8.95"/>
<circle cx="800.0" cy="522.7" r="8.60"/>
<circle cx="821.3" cy="522.7" r="8.18"/>
<circle cx="842.7" cy="522.7" r="7.74"/>
<circle cx="864.0" cy="522.7" r="7.33"/>
<circle cx="885.3" cy="522.7" r="6.99"/>
<circle cx="906.7" cy="522.7" r="6.78"/>
<circle cx="928.0" cy="522.7" r="1.82"/>
<circle cx="949.3" cy="522.7" r="1.82"/>
<circle cx="970.7" cy="522.7" r="1.82"/>
<circle cx="992.0" cy="522.7" r="1.82"/>
<circle cx="1013.3" cy="522.7" r="1.82"/>
<circle cx="10.7" cy="544.0" r="1.82"/>
<circle cx="32.0" cy="544.0" r="1.82"/>
<circle cx="53.3" cy="544.0" r="1.82"/>
<circle cx="74.7" cy="544.0" r="1.82"/>
<circle cx="96.0" cy="544.0" r="1.82"/>
<circle cx="117.3" cy="544.0" r="1.82"/>
<circle cx="138.7" cy="544.0" r="6.37"/>
<circle cx="160.0" cy="544.0" r="7.32"/>
<circle cx="181.3" cy="544.0" r="7.73"/>
<circle cx="202.7" cy="544.0" r="8.17"/>
<circle cx="224.0" cy="544.0" r="8.59"/>
<circle cx="245.3" cy="544.0" r="8.94"/>
<circle cx="266.7" cy="544.0" r="9.16"/>
<circle cx="288.0" cy="544.0" r="9.29"/>
<circle cx="309.3" cy="544.0" r="9.38"/>
<circle cx="330.7" cy="544.0" r="9.42"/>
<circle cx="352.0" cy="544.0" r="2.94"/>
<circle cx="373.3" cy="544.0" r="4.11"/>
<circle cx="394.7" cy="544.0" r="4.36"/>
<circle cx="416.0" cy="544.0" r="4.55"/>
<circle cx="437.3" cy="544.0" r="4.65"/>
<circle cx="458.7" cy="544.0" r="4.65"/>
<circle cx="480.0" cy="544.0" r="1.05"/>
<circle cx="501.3" cy="544.0" r="1.05"/>
<circle cx="522.7" cy="544.0" r="1.05"/>
<circle cx="544.0" cy="544.0" r="1.05"/>
<circle cx="565.3" cy="544.0" r="9.72"/>
<circle cx="586.7" cy="544.0" r="3.41"/>
<circle cx="608.0" cy="544.0" r="3.36"/>
<circle cx="629.3" cy="544.0" r="3.36"/>
<circle cx="650.7" cy="544.0" r="3.36"/>
<circle cx="672.0" cy="544.0" r="2.58"/>
<circle cx="693.3" cy="544.0" r="9.42"/>
<circle cx="714.7" cy="544.0" r="9.38"/>
<circle cx="736.0" cy="544.0" r="9.29"/>
<circle cx="757.3" cy="544.0" r="9.16"/>
<circle cx="778.7" cy="544.0" r="8.94"/>
<circle cx="800.0" cy="544.0" r="8.59"/>
<circle cx="821.3" cy="544.0" r="8.17"/>
<circle cx="842.7" cy="544.0" r="7.73"/>
<circle cx="864.0" cy="544.0" r="7.32"/>
<circle cx="885.3" cy="544.0" r="6.37"/>
<circle cx="906.7" cy="544.0" r="1.82"/>
<circle cx="928.0" cy="544.0" r="1.82"/>
<circle cx="949.3" cy="544.0" r="1.82"/>
<circle cx="970.7" cy="544.0" r="1.82"/>
<circle cx="992.0" cy="544.0" r="1.82"/>
<circle cx="1013.3" cy="544.0" r="1.82"/>
<circle cx="10.7" cy="565.3" r="1.82"/>
<circle cx="32.0" cy="565.3" r="1.82"/>
<circle cx="53.3" cy="565.3" r="1.82"/>
<circle cx="74.7" cy="565.3" r="1.82"/>
<circle cx="96.0" cy="565.3" r="1.82"/>
<circle cx="117.3" cy="565.3" r="1.82"/>
<circle cx="138.7" cy="565.3" r="1.82"/>
<circle cx="160.0" cy="565.3" r="4.94"/>
<circle cx="181.3" cy="565.3" r="7.71"/>
<circle cx="202.7" cy="565.3" r="8.15"/>
<circle cx="224.0" cy="565.3" r="8.56"/>
<circle cx="245.3" cy="565.3" r="8.91"/>
<circle cx="266.7" cy="565.3" r="9.14"/>
<circle cx="288.0" cy="565.3" r="9.27"/>
<circle cx="309.3" cy="565.3" r="9.37"/>
<circle cx="330.7" cy="565.3" r="9.42"/>
<circle cx="352.0" cy="565.3" r="2.37"/>
<circle cx="373.3" cy="565.3" r="3.72"/>
<circle cx="394.7" cy="565.3" r="3.97"/>
<circle cx="416.0" cy="565.3" r="4.12"/>
<circle cx="437.3" cy="565.3" r="4.20"/>
<circle cx="458.7" cy="565.3" r="4.21"/>
<circle cx="480.0" cy="565.3" r="4.13"/>
<circle cx="501.3" cy="565.3" r="3.99"/>
<circle cx="522.7" cy="565.3" r="3.80"/>
<circle cx="544.0" cy="565.3" r="9.72"/>
<circle cx="565.3" cy="565.3" r="9.72"/>
<circle cx="586.7" cy="565.3" r="3.36"/>
<circle cx="608.0" cy="565.3" r="3.36"/>
<circle cx="629.3" cy="565.3" r="3.36"/>
<circle cx="650.7" cy="565.3" r="3.30"/>
<circle cx="672.0" cy="565.3" r="2.23"/>
<circle cx="693.3" cy="565.3" r="9.42"/>
<circle cx="714.7" cy="565.3" r="9.37"/>
<circle cx="736.0" cy="565.3" r="9.27"/>
<circle cx="757.3" cy="565.3" r="9.14"/>
<circle cx="778.7" cy="565.3" r="8.91"/>
<circle cx="800.0" cy="565.3" r="8.56"/>
<circle cx="821.3" cy="565.3" r="8.15"/>
<circle cx="842.7" cy="565.3" r="7.71"/>
<circle cx="864.0" cy="565.3" r="4.94"/>
<circle cx="885.3" cy="565.3" r="1.82"/>
<circle cx="906.7" cy="565.3" r="1.82"/>
<circle cx="928.0" cy="565.3" r="1.82"/>
<circle cx="949.3" cy="565.3" r="1.82"/>
<circle cx="970.7" cy="565.3" r="1.82"/>
<circle cx="992.0" cy="565.3" r="1.82"/>
<circle cx="1013.3" cy="565.3" r="1.82"/>
<circle cx="10.7" cy="586.7" r="1.82"/>
<circle cx="32.0" cy="586.7" r="1.82"/>
<circle cx="53.3" cy="586.7" r="1.82"/>
<circle cx="74.7" cy="586.7" r="1.82"/>
<circle cx="96.0" cy="586.7" r="1.82"/>
<circle cx="117.3" cy="586.7" r="1.82"/>
<circle cx="138.7" cy="586.7" r="1.82"/>
<circle cx="160.0" cy="586.7" r="1.82"/>
<circle cx="181.3" cy="586.7" r="3.83"/>
<circle cx="202.7" cy="586.7" r="8.11"/>
<circle cx="224.0" cy="586.7" r="8.53"/>
<circle cx="245.3" cy="586.7" r="8.87"/>
<circle cx="266.7" cy="586.7" r="9.10"/>
<circle cx="288.0" cy="586.7" r="9.24"/>
<circle cx="309.3" cy="586.7" r="9.34"/>
<circle cx="330.7" cy="586.7" r="9.41"/>
<circle cx="352.0" cy="586.7" r="1.87"/>
<circle cx="373.3" cy="586.7" r="3.05"/>
<circle cx="394.7" cy="586.7" r="3.63"/>
<circle cx="416.0" cy="586.7" r="3.73"/>
<circle cx="437.3" cy="586.7" r="3.79"/>
<circle cx="458.7" cy="586.7" r="3.79"/>
<circle cx="480.0" cy="586.7" r="3.74"/>
<circle cx="501.3" cy="586.7" r="3.64"/>
<circle cx="522.7" cy="586.7" r="3.51"/>
<circle cx="544.0" cy="586.7" r="3.41"/>
<circle cx="565.3" cy="586.7" r="9.28"/>
<circle cx="586.7" cy="586.7" r="9.28"/>
<circle cx="608.0" cy="586.7" r="3.36"/>
<circle cx="629.3" cy="586.7" r="3.36"/>
<circle cx="650.7" cy="586.7" r="2.93"/>
<circle cx="672.0" cy="586.7" r="1.85"/>
<circle cx="693.3" cy="586.7" r="9.41"/>
<circle cx="714.7" cy="586.7" r="9.34"/>
<circle cx="736.0" cy="586.7" r="9.24"/>
<circle cx="757.3" cy="586.7" r="9.10"/>
<circle cx="778.7" cy="586.7" r="8.87"/>
<circle cx="800.0" cy="586.7" r="8.53"/>
<circle cx="821.3" cy="586.7" r="8.11"/>
<circle cx="842.7" cy="586.7" r="3.83"/>
<circle cx="864.0" cy="586.7" r="1.82"/>
<circle cx="885.3" cy="586.7" r="1.82"/>
<circle cx="906.7" cy="586.7" r="1.82"/>
<circle cx="928.0" cy="586.7" r="1.82"/>
<circle cx="949.3" cy="586.7" r="1.82"/>
<circle cx="970.7" cy="586.7" r="1.82"/>
<circle cx="992.0" cy="586.7" r="1.82"/>
<circle cx="1013.3" cy="586.7" r="1.82"/>
<circle cx="10.7" cy="608.0" r="1.82"/>
<circle cx="32.0" cy="608.0" r="1.82"/>
<circle cx="53.3" cy="608.0" r="1.82"/>
<circle cx="74.7" cy="608.0" r="1.82"/>
<circle cx="96.0" cy="608.0" r="1.82"/>
<circle cx="117.3" cy="608.0" r="1.82"/>
<circle cx="138.7" cy="608.0" r="1.82"/>
<circle cx="160.0" cy="608.0" r="1.82"/>
<circle cx="181.3" cy="608.0" r="1.82"/>
<circle cx="202.7" cy="608.0" r="3.30"/>
<circle cx="224.0" cy="608.0" r="7.64"/>
<circle cx="245.3" cy="608.0" r="8.82"/>
<circle cx="266.7" cy="608.0" r="9.04"/>
<circle cx="288.0" cy="608.0" r="9.19"/>
<circle cx="309.3" cy="608.0" r="9.30"/>
<circle cx="330.7" cy="608.0" r="9.38"/>
<circle cx="352.0" cy="608.0" r="9.42"/>
<circle cx="373.3" cy="608.0" r="2.23"/>
<circle cx="394.7" cy="608.0" r="3.25"/>
<circle cx="416.0" cy="608.0" r="3.45"/>
<circle cx="437.3" cy="608.0" r="3.48"/>
<circle cx="458.7" cy="608.0" r="3.48"/>
<circle cx="480.0" cy="608.0" r="3.45"/>
<circle cx="501.3" cy="608.0" r="3.41"/>
<circle cx="522.7" cy="608.0" r="3.37"/>
<circle cx="544.0" cy="608.0" r="3.36"/>
<circle cx="565.3" cy="608.0" r="9.28"/>
<circle cx="586.7" cy="608.0" r="9.28"/>
<circle cx="608.0" cy="608.0" r="3.36"/>
<circle cx="629.3" cy="608.0" r="3.21"/>
<circle cx="650.7" cy="608.0" r="2.23"/>
<circle cx="672.0" cy="608.0" r="9.42"/>
<circle cx="693.3" cy="608.0" r="9.38"/>
<circle cx="714.7" cy="608.0" r="9.30"/>
<circle cx="736.0" cy="608.0" r="9.19"/>
<circle cx="757.3" cy="608.0" r="9.04"/>
<circle cx="778.7" cy="608.0" r="8.82"/>
<circle cx="800.0" cy="608.0" r="7.64"/>
<circle cx="821.3" cy="608.0" r="3.30"/>
<circle cx="842.7" cy="608.0" r="1.82"/>
<circle cx="864.0" cy="608.0" r="1.82"/>
<circle cx="885.3" cy="608.0" r="1.82"/>
<circle cx="906.7" cy="608.0" r="1.82"/>
<circle cx="928.0" cy="608.0" r="1.82"/>
<circle cx="949.3" cy="608.0" r="1.82"/>
<circle cx="970.7" cy="608.0" r="1.82"/>
<circle cx="992.0" cy="608.0" r="1.82"/>
<circle cx="1013.3" cy="608.0" r="1.82"/>
<circle cx="10.7" cy="629.3" r="1.82"/>
<circle cx="32.0" cy="629.3" r="1.82"/>
<circle cx="53.3" cy="629.3" r="1.82"/>
<circle cx="74.7" cy="629.3" r="1.82"/>
<circle cx="96.0" cy="629.3" r="1.82"/>
<circle cx="117.3" cy="629.3" r="1.82"/>
<circle cx="138.7" cy="629.3" r="1.82"/>
<circle cx="160.0" cy="629.3" r="1.82"/>
<circle cx="181.3" cy="629.3" r="1.82"/>
<circle cx="202.7" cy="629.3" r="1.82"/>
<circle cx="224.0" cy="629.3" r="1.82"/>
<circle cx="245.3" cy="629.3" r="5.96"/>
<circle cx="266.7" cy="629.3" r="8.72"/>
<circle cx="288.0" cy="629.3" r="9.12"/>
<circle cx="309.3" cy="629.3" r="9.25"/>
<circle cx="330.7" cy="629.3" r="9.34"/>
<circle cx="352.0" cy="629.3" r="9.40"/>
<circle cx="373.3" cy="629.3" r="9.42"/>
<circle cx="394.7" cy="629.3" r="2.40"/>
<circle cx="416.0" cy="629.3" r="3.21"/>
<circle cx="437.3" cy="629.3" r="3.36"/>
<circle cx="458.7" cy="629.3" r="3.36"/>
<circle cx="480.0" cy="629.3" r="3.36"/>
<circle cx="501.3" cy="629.3" r="3.36"/>
<circle cx="522.7" cy="629.3" r="3.36"/>
<circle cx="544.0" cy="629.3" r="8.83"/>
<circle cx="565.3" cy="629.3" r="8.83"/>
<circle cx="586.7" cy="629.3" r="3.36"/>
<circle cx="608.0" cy="629.3" r="3.21"/>
<circle cx="629.3" cy="629.3" r="2.40"/>
<circle cx="650.7" cy="629.3" r="9.42"/>
<circle cx="672.0" cy="629.3" r="9.40"/>
<circle cx="693.3" cy="629.3" r="9.34"/>
<circle cx="714.7" cy="629.3" r="9.25"/>
<circle cx="736.0" cy="629.3" r="9.12"/>
<circle cx="757.3" cy="629.3" r="8.72"/>
<circle cx="778.7" cy="629.3" r="5.96"/>
<circle cx="800.0" cy="629.3" r="1.82"/>
<circle cx="821.3" cy="629.3" r="1.82"/>
<circle cx="842.7" cy="629.3" r="1.82"/>
<circle cx="864.0" cy="629.3" r="1.82"/>
<circle cx="885.3" cy="629.3" r="1.82"/>
<circle cx="906.7" cy="629.3" r="1.82"/>
<circle cx="928.0" cy="629.3" r="1.82"/>
<circle cx="949.3" cy="629.3" r="1.82"/>
<circle cx="970.7" cy="629.3" r="1.82"/>
<circle cx="992.0" cy="629.3" r="1.82"/>
<circle cx="1013.3" cy="629.3" r="1.82"/>
<circle cx="10.7" cy="650.7" r="1.82"/>
<circle cx="32.0" cy="650.7" r="1.82"/>
<circle cx="53.3" cy="650.7" r="1.82"/>
<circle cx="74.7" cy="650.7" r="1.82"/>
<circle cx="96.0" cy="650.7" r="1.82"/>
<circle cx="117.3" cy="650.7" r="1.82"/>
<circle cx="138.7" cy="650.7" r="1.82"/>
<circle cx="160.0" cy="650.7" r="1.82"/>
<circle cx="181.3" cy="650.7" r="1.82"/>
<circle cx="202.7" cy="650.7" r="1.82"/>
<circle cx="224.0" cy="650.7" r="1.82"/>
<circle cx="245.3" cy="650.7" r="1.82"/>
<circle cx="266.7" cy="650.7" r="4.20"/>
<circle cx="288.0" cy="650.7" r="7.07"/>
<circle cx="309.3" cy="650.7" r="8.87"/>
<circle cx="330.7" cy="650.7" r="9.28"/>
<circle cx="352.0" cy="650.7" r="9.36"/>
<circle cx="373.3" cy="650.7" r="9.41"/>
<circle cx="394.7" cy="650.7" r="9.42"/>
<circle cx="416.0" cy="650.7" r="2.23"/>
<circle cx="437.3" cy="650.7" r="2.93"/>
<circle cx="458.7" cy="650.7" r="3.30"/>
<circle cx="480.0" cy="650.7" r="3.36"/>
<circle cx="501.3" cy="650.7" r="3.36"/>
<circle cx="522.7" cy="650.7" r="3.36"/>
<circle cx="544.0" cy="650.7" r="8.83"/>
<circle cx="565.3" cy="650.7" r="8.69"/>
<circle cx="586.7" cy="650.7" r="2.93"/>
<circle cx="608.0" cy="650.7" r="2.23"/>
<circle cx="629.3" cy="650.7" r="9.42"/>
<circle cx="650.7" cy="650.7" r="9.41"/>
<circle cx="672.0" cy="650.7" r="9.36"/>
<circle cx="693.3" cy="650.7" r="9.28"/>
<circle cx="714.7" cy="650.7" r="8.87"/>
<circle cx="736.0" cy="650.7" r="7.07"/>
<circle cx="757.3" cy="650.7" r="4.20"/>
<circle cx="778.7" cy="650.7" r="1.82"/>
<circle cx="800.0" cy="650.7" r="1.82"/>
<circle cx="821.3" cy="650.7" r="1.82"/>
<circle cx="842.7" cy="650.7" r="1.82"/>
<circle cx="864.0" cy="650.7" r="1.82"/>
<circle cx="885.3" cy="650.7" r="1.82"/>
<circle cx="906.7" cy="650.7" r="1.82"/>
<circle cx="928.0" cy="650.7" r="1.82"/>
<circle cx="949.3" cy="650.7" r="1.82"/>
<circle cx="970.7" cy="650.7" r="1.82"/>
<circle cx="992.0" cy="650.7" r="1.82"/>
<circle cx="1013.3" cy="650.7" r="1.82"/>
<circle cx="10.7" cy="672.0" r="1.82"/>
<circle cx="32.0" cy="672.0" r="1.82"/>
<circle cx="53.3" cy="672.0" r="1.82"/>
<circle cx="74.7" cy="672.0" r="1.82"/>
<circle cx="96.0" cy="672.0" r="1.82"/>
<circle cx="117.3" cy="672.0" r="1.82"/>
<circle cx="138.7" cy="672.0" r="1.82"/>
<circle cx="160.0" cy="672.0" r="1.82"/>
<circle cx="181.3" cy="672.0" r="1.82"/>
<circle cx="202.7" cy="672.0" r="1.82"/>
<circle cx="224.0" cy="672.0" r="1.82"/>
<circle cx="245.3" cy="672.0" r="1.82"/>
<circle cx="266.7" cy="672.0" r="1.82"/>
<circle cx="288.0" cy="672.0" r="1.82"/>
<circle cx="309.3" cy="672.0" r="4.88"/>
<circle cx="330.7" cy="672.0" r="7.01"/>
<circle cx="352.0" cy="672.0" r="8.49"/>
<circle cx="373.3" cy="672.0" r="9.23"/>
<circle cx="394.7" cy="672.0" r="9.40"/>
<circle cx="416.0" cy="672.0" r="9.42"/>
<circle cx="437.3" cy="672.0" r="1.85"/>
<circle cx="458.7" cy="672.0" r="2.23"/>
<circle cx="480.0" cy="672.0" r="2.58"/>
<circle cx="501.3" cy="672.0" r="2.76"/>
<circle cx="522.7" cy="672.0" r="2.76"/>
<circle cx="544.0" cy="672.0" r="6.27"/>
<circle cx="565.3" cy="672.0" r="2.23"/>
<circle cx="586.7" cy="672.0" r="1.85"/>
<circle cx="608.0" cy="672.0" r="9.42"/>
<circle cx="629.3" cy="672.0" r="9.40"/>
<circle cx="650.7" cy="672.0" r="9.23"/>
<circle cx="672.0" cy="672.0" r="8.49"/>
<circle cx="693.3" cy="672.0" r="7.01"/>
<circle cx="714.7" cy="672.0" r="4.88"/>
<circle cx="736.0" cy="672.0" r="1.82"/>
<circle cx="757.3" cy="672.0" r="1.82"/>
<circle cx="778.7" cy="672.0" r="1.82"/>
<circle cx="800.0" cy="672.0" r="1.82"/>
<circle cx="821.3" cy="672.0" r="1.82"/>
<circle cx="842.7" cy="672.0" r="1.82"/>
<circle cx="864.0" cy="672.0" r="1.82"/>
<circle cx="885.3" cy="672.0" r="1.82"/>
<circle cx="906.7" cy="672.0" r="1.82"/>
<circle cx="928.0" cy="672.0" r="1.82"/>
<circle cx="949.3" cy="672.0" r="1.82"/>
<circle cx="970.7" cy="672.0" r="1.82"/>
<circle cx="992.0" cy="672.0" r="1.82"/>
<circle cx="1013.3" cy="672.0" r="1.82"/>
<circle cx="10.7" cy="693.3" r="1.82"/>
<circle cx="32.0" cy="693.3" r="1.82"/>
<circle cx="53.3" cy="693.3" r="1.82"/>
<circle cx="74.7" cy="693.3" r="1.82"/>
<circle cx="96.0" cy="693.3" r="1.82"/>
<circle cx="117.3" cy="693.3" r="1.82"/>
<circle cx="138.7" cy="693.3" r="1.82"/>
<circle cx="160.0" cy="693.3" r="1.82"/>
<circle cx="181.3" cy="693.3" r="1.82"/>
<circle cx="202.7" cy="693.3" r="1.82"/>
<circle cx="224.0" cy="693.3" r="1.82"/>
<circle cx="245.3" cy="693.3" r="1.82"/>
<circle cx="266.7" cy="693.3" r="1.82"/>
<circle cx="288.0" cy="693.3" r="1.82"/>
<circle cx="309.3" cy="693.3" r="1.82"/>
<circle cx="330.7" cy="693.3" r="1.82"/>
<circle cx="352.0" cy="693.3" r="4.64"/>
<circle cx="373.3" cy="693.3" r="6.13"/>
<circle cx="394.7" cy="693.3" r="7.35"/>
<circle cx="416.0" cy="693.3" r="8.20"/>
<circle cx="437.3" cy="693.3" r="8.73"/>
<circle cx="458.7" cy="693.3" r="9.04"/>
<circle cx="480.0" cy="693.3" r="9.19"/>
<circle cx="501.3" cy="693.3" r="9.25"/>
<circle cx="522.7" cy="693.3" r="9.25"/>
<circle cx="544.0" cy="693.3" r="9.19"/>
<circle cx="565.3" cy="693.3" r="9.04"/>
<circle cx="586.7" cy="693.3" r="8.73"/>
<circle cx="608.0" cy="693.3" r="8.20"/>
<circle cx="629.3" cy="693.3" r="7.35"/>
<circle cx="650.7" cy="693.3" r="6.13"/>
<circle cx="672.0" cy="693.3" r="4.64"/>
<circle cx="693.3" cy="693.3" r="1.82"/>
<circle cx="714.7" cy="693.3" r="1.82"/>
<circle cx="736.0" cy="693.3" r="1.82"/>
<circle cx="757.3" cy="693.3" r="1.82"/>
<circle cx="778.7" cy="693.3" r="1.82"/>
<circle cx="800.0" cy="693.3" r="1.82"/>
<circle cx="821.3" cy="693.3" r="1.82"/>
<circle cx="842.7" cy="693.3" r="1.82"/>
<circle cx="864.0" cy="693.3" r="1.82"/>
<circle cx="885.3" cy="693.3" r="1.82"/>
<circle cx="906.7" cy="693.3" r="1.82"/>
<circle cx="928.0" cy="693.3" r="1.82"/>
<circle cx="949.3" cy="693.3" r="1.82"/>
<circle cx="970.7" cy="693.3" r="1.82"/>
<circle cx="992.0" cy="693.3" r="1.82"/>
<circle cx="1013.3" cy="693.3" r="1.82"/>
<circle cx="10.7" cy="714.7" r="1.82"/>
<circle cx="32.0" cy="714.7" r="1.82"/>
<circle cx="53.3" cy="714.7" r="1.82"/>
<circle cx="74.7" cy="714.7" r="1.82"/>
<circle cx="96.0" cy="714.7" r="1.82"/>
<circle cx="117.3" cy="714.7" r="1.82"/>
<circle cx="138.7" cy="714.7" r="1.82"/>
<circle cx="160.0" cy="714.7" r="1.82"/>
<circle cx="181.3" cy="714.7" r="1.82"/>
<circle cx="202.7" cy="714.7" r="1.82"/>
<circle cx="224.0" cy="714.7" r="1.82"/>
<circle cx="245.3" cy="714.7" r="1.82"/>
<circle cx="266.7" cy="714.7" r="1.82"/>
<circle cx="288.0" cy="714.7" r="1.82"/>
<circle cx="309.3" cy="714.7" r="1.82"/>
<circle cx="330.7" cy="714.7" r="1.82"/>
<circle cx="352.0" cy="714.7" r="1.82"/>
<circle cx="373.3" cy="714.7" r="1.82"/>
<circle cx="394.7" cy="714.7" r="3.92"/>
<circle cx="416.0" cy="714.7" r="4.63"/>
<circle cx="437.3" cy="714.7" r="5.37"/>
<circle cx="458.7" cy="714.7" r="5.96"/>
<circle cx="480.0" cy="714.7" r="6.35"/>
<circle cx="501.3" cy="714.7" r="6.54"/>
<circle cx="522.7" cy="714.7" r="6.54"/>
<circle cx="544.0" cy="714.7" r="6.35"/>
<circle cx="565.3" cy="714.7" r="5.96"/>
<circle cx="586.7" cy="714.7" r="5.37"/>
<circle cx="608.0" cy="714.7" r="4.63"/>
<circle cx="629.3" cy="714.7" r="3.92"/>
<circle cx="650.7" cy="714.7" r="1.82"/>
<circle cx="672.0" cy="714.7" r="1.82"/>
<circle cx="693.3" cy="714.7" r="1.82"/>
<circle cx="714.7" cy="714.7" r="1.82"/>
<circle cx="736.0" cy="714.7" r="1.82"/>
<circle cx="757.3" cy="714.7" r="1.82"/>
<circle cx="778.7" cy="714.7" r="1.82"/>
<circle cx="800.0" cy="714.7" r="1.82"/>
<circle cx="821.3" cy="714.7" r="1.82"/>
<circle cx="842.7" cy="714.7" r="1.82"/>
<circle cx="864.0" cy="714.7" r="1.82"/>
<circle cx="885.3" cy="714.7" r="1.82"/>
<circle cx="906.7" cy="714.7" r="1.82"/>
<circle cx="928.0" cy="714.7" r="1.82"/>
<circle cx="949.3" cy="714.7" r="1.82"/>
<circle cx="970.7" cy="714.7" r="1.82"/>
<circle cx="992.0" cy="714.7" r="1.82"/>
<circle cx="1013.3" cy="714.7" r="1.82"/>
<circle cx="10.7" cy="736.0" r="1.82"/>
<circle cx="32.0" cy="736.0" r="1.82"/>
<circle cx="53.3" cy="736.0" r="1.82"/>
<circle cx="74.7" cy="736.0" r="1.82"/>
<circle cx="96.0" cy="736.0" r="1.82"/>
<circle cx="117.3" cy="736.0" r="1.82"/>
<circle cx="138.7" cy="736.0" r="1.82"/>
<circle cx="160.0" cy="736.0" r="1.82"/>
<circle cx="181.3" cy="736.0" r="1.82"/>
<circle cx="202.7" cy="736.0" r="1.82"/>
<circle cx="224.0" cy="736.0" r="1.82"/>
<circle cx="245.3" cy="736.0" r="1.82"/>
<circle cx="266.7" cy="736.0" r="1.82"/>
<circle cx="288.0" cy="736.0" r="1.82"/>
<circle cx="309.3" cy="736.0" r="1.82"/>
<circle cx="330.7" cy="736.0" r="1.82"/>
<circle cx="352.0" cy="736.0" r="1.82"/>
<circle cx="373.3" cy="736.0" r="1.82"/>
<circle cx="394.7" cy="736.0" r="1.82"/>
<circle cx="416.0" cy="736.0" r="1.82"/>
<circle cx="437.3" cy="736.0" r="1.82"/>
<circle cx="458.7" cy="736.0" r="1.82"/>
<circle cx="480.0" cy="736.0" r="1.82"/>
<circle cx="501.3" cy="736.0" r="3.79"/>
<circle cx="522.7" cy="736.0" r="3.79"/>
<circle cx="544.0" cy="736.0" r="1.82"/>
<circle cx="565.3" cy="736.0" r="1.82"/>
<circle cx="586.7" cy="736.0" r="1.82"/>
<circle cx="608.0" cy="736.0" r="1.82"/>
<circle cx="629.3" cy="736.0" r="1.82"/>
<circle cx="650.7" cy="736.0" r="1.82"/>
<circle cx="672.0" cy="736.0" r="1.82"/>
<circle cx="693.3" cy="736.0" r="1.82"/>
<circle cx="714.7" cy="736.0" r="1.82"/>
<circle cx="736.0" cy="736.0" r="1.82"/>
<circle cx="757.3" cy="736.0" r="1.82"/>
<circle cx="778.7" cy="736.0" r="1.82"/>
<circle cx="800.0" cy="736.0" r="1.82"/>
<circle cx="821.3" cy="736.0" r="1.82"/>
<circle cx="842.7" cy="736.0" r="1.82"/>
<circle cx="864.0" cy="736.0" r="1.82"/>
<circle cx="885.3" cy="736.0" r="1.82"/>
<circle cx="906.7" cy="736.0" r="1.82"/>
<circle cx="928.0" cy="736.0" r="1.82"/>
<circle cx="949.3" cy="736.0" r="1.82"/>
<circle cx="970.7" cy="736.0" r="1.82"/>
<circle cx="992.0" cy="736.0" r="1.82"/>
<circle cx="1013.3" cy="736.0" r="1.82"/>
<circle cx="10.7" cy="757.3" r="1.82"/>
<circle cx="32.0" cy="757.3" r="1.82"/>
<circle cx="53.3" cy="757.3" r="1.82"/>
<circle cx="74.7" cy="757.3" r="1.82"/>
<circle cx="96.0" cy="757.3" r="1.82"/>
<circle cx="117.3" cy="757.3" r="1.82"/>
<circle cx="138.7" cy="757.3" r="1.82"/>
<circle cx="160.0" cy="757.3" r="1.82"/>
<circle cx="181.3" cy="757.3" r="1.82"/>
<circle cx="202.7" cy="757.3" r="1.82"/>
<circle cx="224.0" cy="757.3" r="1.82"/>
<circle cx="245.3" cy="757.3" r="1.82"/>
<circle cx="266.7" cy="757.3" r="1.82"/>
<circle cx="288.0" cy="757.3" r="1.82"/>
<circle cx="309.3" cy="757.3" r="1.82"/>
<circle cx="330.7" cy="757.3" r="1.82"/>
<circle cx="352.0" cy="757.3" r="1.82"/>
<circle cx="373.3" cy="757.3" r="1.82"/>
<circle cx="394.7" cy="757.3" r="1.82"/>
<circle cx="416.0" cy="757.3" r="1.82"/>
<circle cx="437.3" cy="757.3" r="1.82"/>
<circle cx="458.7" cy="757.3" r="1.82"/>
<circle cx="480.0" cy="757.3" r="1.82"/>
<circle cx="501.3" cy="757.3" r="1.82"/>
<circle cx="522.7" cy="757.3" r="1.82"/>
<circle cx="544.0" cy="757.3" r="1.82"/>
<circle cx="565.3" cy="757.3" r="1.82"/>
<circle cx="586.7" cy="757.3" r="1.82"/>
<circle cx="608.0" cy="757.3" r="1.82"/>
<circle cx="629.3" cy="757.3" r="1.82"/>
<circle cx="650.7" cy="757.3" r="1.82"/>
<circle cx="672.0" cy="757.3" r="1.82"/>
<circle cx="693.3" cy="757.3" r="1.82"/>
<circle cx="714.7" cy="757.3" r="1.82"/>
<circle cx="736.0" cy="757.3" r="1.82"/>
<circle cx="757.3" cy="757.3" r="1.82"/>
<circle cx="778.7" cy="757.3" r="1.82"/>
<circle cx="800.0" cy="757.3" r="1.82"/>
<circle cx="821.3" cy="757.3" r="1.82"/>
<circle cx="842.7" cy="757.3" r="1.82"/>
<circle cx="864.0" cy="757.3" r="1.82"/>
<circle cx="885.3" cy="757.3" r="1.82"/>
<circle cx="906.7" cy="757.3" r="1.82"/>
<circle cx="928.0" cy="757.3" r="1.82"/>
<circle cx="949.3" cy="757.3" r="1.82"/>
<circle cx="970.7" cy="757.3" r="1.82"/>
<circle cx="992.0" cy="757.3" r="1.82"/>
<circle cx="1013.3" cy="757.3" r="1.82"/>
<circle cx="10.7" cy="778.7" r="1.82"/>
<circle cx="32.0" cy="778.7" r="1.82"/>
<circle cx="53.3" cy="778.7" r="1.82"/>
<circle cx="74.7" cy="778.7" r="1.82"/>
<circle cx="96.0" cy="778.7" r="1.82"/>
<circle cx="117.3" cy="778.7" r="1.82"/>
<circle cx="138.7" cy="778.7" r="1.82"/>
<circle cx="160.0" cy="778.7" r="1.82"/>
<circle cx="181.3" cy="778.7" r="1.82"/>
<circle cx="202.7" cy="778.7" r="1.82"/>
<circle cx="224.0" cy="778.7" r="1.82"/>
<circle cx="245.3" cy="778.7" r="1.82"/>
<circle cx="266.7" cy="778.7" r="1.82"/>
<circle cx="288.0" cy="778.7" r="1.82"/>
<circle cx="309.3" cy="778.7" r="1.82"/>
<circle cx="330.7" cy="778.7" r="1.82"/>
<circle cx="352.0" cy="778.7" r="1.82"/>
<circle cx="373.3" cy="778.7" r="1.82"/>
<circle cx="394.7" cy="778.7" r="1.82"/>
<circle cx="416.0" cy="778.7" r="1.82"/>
<circle cx="437.3" cy="778.7" r="1.82"/>
<circle cx="458.7" cy="778.7" r="1.82"/>
<circle cx="480.0" cy="778.7" r="1.82"/>
<circle cx="501.3" cy="778.7" r="1.82"/>
<circle cx="522.7" cy="778.7" r="1.82"/>
<circle cx="544.0" cy="778.7" r="1.82"/>
<circle cx="565.3" cy="778.7" r="1.82"/>
<circle cx="586.7" cy="778.7" r="1.82"/>
<circle cx="608.0" cy="778.7" r="1.82"/>
<circle cx="629.3" cy="778.7" r="1.82"/>
<circle cx="650.7" cy="778.7" r="1.82"/>
<circle cx="672.0" cy="778.7" r="1.82"/>
<circle cx="693.3" cy="778.7" r="1.82"/>
<circle cx="714.7" cy="778.7" r="1.82"/>
<circle cx="736.0" cy="778.7" r="1.82"/>
<circle cx="757.3" cy="778.7" r="1.82"/>
<circle cx="778.7" cy="778.7" r="1.82"/>
<circle cx="800.0" cy="778.7" r="1.82"/>
<circle cx="821.3" cy="778.7" r="1.82"/>
<circle cx="842.7" cy="778.7" r="1.82"/>
<circle cx="864.0" cy="778.7" r="1.82"/>
<circle cx="885.3" cy="778.7" r="1.82"/>
<circle cx="906.7" cy="778.7" r="1.82"/>
<circle cx="928.0" cy="778.7" r="1.82"/>
<circle cx="949.3" cy="778.7" r="1.82"/>
<circle cx="970.7" cy="778.7" r="1.82"/>
<circle cx="992.0" cy="778.7" r="1.82"/>
<circle cx="1013.3" cy="778.7" r="1.82"/>
<circle cx="10.7" cy="800.0" r="1.82"/>
<circle cx="32.0" cy="800.0" r="1.82"/>
<circle cx="53.3" cy="800.0" r="1.82"/>
<circle cx="74.7" cy="800.0" r="1.82"/>
<circle cx="96.0" cy="800.0" r="1.82"/>
<circle cx="117.3" cy="800.0" r="1.82"/>
<circle cx="138.7" cy="800.0" r="1.82"/>
<circle cx="160.0" cy="800.0" r="1.82"/>
<circle cx="181.3" cy="800.0" r="1.82"/>
<circle cx="202.7" cy="800.0" r="1.82"/>
<circle cx="224.0" cy="800.0" r="1.82"/>
<circle cx="245.3" cy="800.0" r="1.82"/>
<circle cx="266.7" cy="800.0" r="1.82"/>
<circle cx="288.0" cy="800.0" r="1.82"/>
<circle cx="309.3" cy="800.0" r="1.82"/>
<circle cx="330.7" cy="800.0" r="1.82"/>
<circle cx="352.0" cy="800.0" r="1.82"/>
<circle cx="373.3" cy="800.0" r="1.82"/>
<circle cx="394.7" cy="800.0" r="1.82"/>
<circle cx="416.0" cy="800.0" r="1.82"/>
<circle cx="437.3" cy="800.0" r="1.82"/>
<circle cx="458.7" cy="800.0" r="1.82"/>
<circle cx="480.0" cy="800.0" r="1.82"/>
<circle cx="501.3" cy="800.0" r="1.82"/>
<circle cx="522.7" cy="800.0" r="1.82"/>
<circle cx="544.0" cy="800.0" r="1.82"/>
<circle cx="565.3" cy="800.0" r="1.82"/>
<circle cx="586.7" cy="800.0" r="1.82"/>
<circle cx="608.0" cy="800.0" r="1.82"/>
<circle cx="629.3" cy="800.0" r="1.82"/>
<circle cx="650.7" cy="800.0" r="1.82"/>
<circle cx="672.0" cy="800.0" r="1.82"/>
<circle cx="693.3" cy="800.0" r="1.82"/>
<circle cx="714.7" cy="800.0" r="1.82"/>
<circle cx="736.0" cy="800.0" r="1.82"/>
<circle cx="757.3" cy="800.0" r="1.82"/>
<circle cx="778.7" cy="800.0" r="1.82"/>
<circle cx="800.0" cy="800.0" r="1.82"/>
<circle cx="821.3" cy="800.0" r="1.82"/>
<circle cx="842.7" cy="800.0" r="1.82"/>
<circle cx="864.0" cy="800.0" r="1.82"/>
<circle cx="885.3" cy="800.0" r="1.82"/>
<circle cx="906.7" cy="800.0" r="1.82"/>
<circle cx="928.0" cy="800.0" r="1.82"/>
<circle cx="949.3" cy="800.0" r="1.82"/>
<circle cx="970.7" cy="800.0" r="1.82"/>
<circle cx="992.0" cy="800.0" r="1.82"/>
<circle cx="1013.3" cy="800.0" r="1.82"/>
<circle cx="10.7" cy="821.3" r="1.82"/>
<circle cx="32.0" cy="821.3" r="1.82"/>
<circle cx="53.3" cy="821.3" r="1.82"/>
<circle cx="74.7" cy="821.3" r="1.82"/>
<circle cx="96.0" cy="821.3" r="1.82"/>
<circle cx="117.3" cy="821.3" r="1.82"/>
<circle cx="138.7" cy="821.3" r="1.82"/>
<circle cx="160.0" cy="821.3" r="1.82"/>
<circle cx="181.3" cy="821.3" r="1.82"/>
<circle cx="202.7" cy="821.3" r="1.82"/>
<circle cx="224.0" cy="821.3" r="1.82"/>
<circle cx="245.3" cy="821.3" r="1.82"/>
<circle cx="266.7" cy="821.3" r="1.82"/>
<circle cx="288.0" cy="821.3" r="1.82"/>
<circle cx="309.3" cy="821.3" r="1.82"/>
<circle cx="330.7" cy="821.3" r="1.82"/>
<circle cx="352.0" cy="821.3" r="1.82"/>
<circle cx="373.3" cy="821.3" r="1.82"/>
<circle cx="394.7" cy="821.3" r="1.82"/>
<circle cx="416.0" cy="821.3" r="1.82"/>
<circle cx="437.3" cy="821.3" r="1.82"/>
<circle cx="458.7" cy="821.3" r="1.82"/>
<circle cx="480.0" cy="821.3" r="1.82"/>
<circle cx="501.3" cy="821.3" r="1.82"/>
<circle cx="522.7" cy="821.3" r="1.82"/>
<circle cx="544.0" cy="821.3" r="1.82"/>
<circle cx="565.3" cy="821.3" r="1.82"/>
<circle cx="586.7" cy="821.3" r="1.82"/>
<circle cx="608.0" cy="821.3" r="1.82"/>
<circle cx="629.3" cy="821.3" r="1.82"/>
<circle cx="650.7" cy="821.3" r="1.82"/>
<circle cx="672.0" cy="821.3" r="1.82"/>
<circle cx="693.3" cy="821.3" r="1.82"/>
<circle cx="714.7" cy="821.3" r="1.82"/>
<circle cx="736.0" cy="821.3" r="1.82"/>
<circle cx="757.3" cy="821.3" r="1.82"/>
<circle cx="778.7" cy="821.3" r="1.82"/>
<circle cx="800.0" cy="821.3" r="1.82"/>
<circle cx="821.3" cy="821.3" r="1.82"/>
<circle cx="842.7" cy="821.3" r="1.82"/>
<circle cx="864.0" cy="821.3" r="1.82"/>
<circle cx="885.3" cy="821.3" r="1.82"/>
<circle cx="906.7" cy="821.3" r="1.82"/>
<circle cx="928.0" cy="821.3" r="1.82"/>
<circle cx="949.3" cy="821.3" r="1.82"/>
<circle cx="970.7" cy="821.3" r="1.82"/>
<circle cx="992.0" cy="821.3" r="1.82"/>
<circle cx="1013.3" cy="821.3" r="1.82"/>
<circle cx="10.7" cy="842.7" r="1.82"/>
<circle cx="32.0" cy="842.7" r="1.82"/>
<circle cx="53.3" cy="842.7" r="1.82"/>
<circle cx="74.7" cy="842.7" r="1.82"/>
<circle cx="96.0" cy="842.7" r="1.82"/>
<circle cx="117.3" cy="842.7" r="1.82"/>
<circle cx="138.7" cy="842.7" r="1.82"/>
<circle cx="160.0" cy="842.7" r="1.82"/>
<circle cx="181.3" cy="842.7" r="1.82"/>
<circle cx="202.7" cy="842.7" r="1.82"/>
<circle cx="224.0" cy="842.7" r="1.82"/>
<circle cx="245.3" cy="842.7" r="1.82"/>
<circle cx="266.7" cy="842.7" r="1.82"/>
<circle cx="288.0" cy="842.7" r="1.82"/>
<circle cx="309.3" cy="842.7" r="1.82"/>
<circle cx="330.7" cy="842.7" r="1.82"/>
<circle cx="352.0" cy="842.7" r="1.82"/>
<circle cx="373.3" cy="842.7" r="1.82"/>
<circle cx="394.7" cy="842.7" r="1.82"/>
<circle cx="416.0" cy="842.7" r="1.82"/>
<circle cx="437.3" cy="842.7" r="1.82"/>
<circle cx="458.7" cy="842.7" r="1.82"/>
<circle cx="480.0" cy="842.7" r="1.82"/>
<circle cx="501.3" cy="842.7" r="1.82"/>
<circle cx="522.7" cy="842.7" r="1.82"/>
<circle cx="544.0" cy="842.7" r="1.82"/>
<circle cx="565.3" cy="842.7" r="1.82"/>
<circle cx="586.7" cy="842.7" r="1.82"/>
<circle cx="608.0" cy="842.7" r="1.82"/>
<circle cx="629.3" cy="842.7" r="1.82"/>
<circle cx="650.7" cy="842.7" r="1.82"/>
<circle cx="672.0" cy="842.7" r="1.82"/>
<circle cx="693.3" cy="842.7" r="1.82"/>
<circle cx="714.7" cy="842.7" r="1.82"/>
<circle cx="736.0" cy="842.7" r="1.82"/>
<circle cx="757.3" cy="842.7" r="1.82"/>
<circle cx="778.7" cy="842.7" r="1.82"/>
<circle cx="800.0" cy="842.7" r="1.82"/>
<circle cx="821.3" cy="842.7" r="1.82"/>
<circle cx="842.7" cy="842.7" r="1.82"/>
<circle cx="864.0" cy="842.7" r="1.82"/>
<circle cx="885.3" cy="842.7" r="1.82"/>
<circle cx="906.7" cy="842.7" r="1.82"/>
<circle cx="928.0" cy="842.7" r="1.82"/>
<circle cx="949.3" cy="842.7" r="1.82"/>
<circle cx="970.7" cy="842.7" r="1.82"/>
<circle cx="992.0" cy="842.7" r="1.82"/>
<circle cx="1013.3" cy="842.7" r="1.82"/>
<circle cx="10.7" cy="864.0" r="1.82"/>
<circle cx="32.0" cy="864.0" r="1.82"/>
<circle cx="53.3" cy="864.0" r="1.82"/>
<circle cx="74.7" cy="864.0" r="1.82"/>
<circle cx="96.0" cy="864.0" r="1.82"/>
<circle cx="117.3" cy="864.0" r="1.82"/>
<circle cx="138.7" cy="864.0" r="1.82"/>
<circle cx="160.0" cy="864.0" r="1.82"/>
<circle cx="181.3" cy="864.0" r="1.82"/>
<circle cx="202.7" cy="864.0" r="1.82"/>
<circle cx="224.0" cy="864.0" r="1.82"/>
<circle cx="245.3" cy="864.0" r="1.82"/>
<circle cx="266.7" cy="864.0" r="1.82"/>
<circle cx="288.0" cy="864.0" r="1.82"/>
<circle cx="309.3" cy="864.0" r="1.82"/>
<circle cx="330.7" cy="864.0" r="1.82"/>
<circle cx="352.0" cy="864.0" r="1.82"/>
<circle cx="373.3" cy="864.0" r="1.82"/>
<circle cx="394.7" cy="864.0" r="1.82"/>
<circle cx="416.0" cy="864.0" r="1.82"/>
<circle cx="437.3" cy="864.0" r="1.82"/>
<circle cx="458.7" cy="864.0" r="1.82"/>
<circle cx="480.0" cy="864.0" r="1.82"/>
<circle cx="501.3" cy="864.0" r="1.82"/>
<circle cx="522.7" cy="864.0" r="1.82"/>
<circle cx="544.0" cy="864.0" r="1.82"/>
<circle cx="565.3" cy="864.0" r="1.82"/>
<circle cx="586.7" cy="864.0" r="1.82"/>
<circle cx="608.0" cy="864.0" r="1.82"/>
<circle cx="629.3" cy="864.0" r="1.82"/>
<circle cx="650.7" cy="864.0" r="1.82"/>
<circle cx="672.0" cy="864.0" r="1.82"/>
<circle cx="693.3" cy="864.0" r="1.82"/>
<circle cx="714.7" cy="864.0" r="1.82"/>
<circle cx="736.0" cy="864.0" r="1.82"/>
<circle cx="757.3" cy="864.0" r="1.82"/>
<circle cx="778.7" cy="864.0" r="1.82"/>
<circle cx="800.0" cy="864.0" r="1.82"/>
<circle cx="821.3" cy="864.0" r="1.82"/>
<circle cx="842.7" cy="864.0" r="1.82"/>
<circle cx="864.0" cy="864.0" r="1.82"/>
<circle cx="885.3" cy="864.0" r="1.82"/>
<circle cx="906.7" cy="864.0" r="1.82"/>
<circle cx="928.0" cy="864.0" r="1.82"/>
<circle cx="949.3" cy="864.0" r="1.82"/>
<circle cx="970.7" cy="864.0" r="1.82"/>
<circle cx="992.0" cy="864.0" r="1.82"/>
<circle cx="1013.3" cy="864.0" r="1.82"/>
<circle cx="10.7" cy="885.3" r="1.82"/>
<circle cx="32.0" cy="885.3" r="1.82"/>
<circle cx="53.3" cy="885.3" r="1.82"/>
<circle cx="74.7" cy="885.3" r="1.82"/>
<circle cx="96.0" cy="885.3" r="1.82"/>
<circle cx="117.3" cy="885.3" r="1.82"/>
<circle cx="138.7" cy="885.3" r="1.82"/>
<circle cx="160.0" cy="885.3" r="1.82"/>
<circle cx="181.3" cy="885.3" r="1.82"/>
<circle cx="202.7" cy="885.3" r="1.82"/>
<circle cx="224.0" cy="885.3" r="1.82"/>
<circle cx="245.3" cy="885.3" r="1.82"/>
<circle cx="266.7" cy="885.3" r="1.82"/>
<circle cx="288.0" cy="885.3" r="1.82"/>
<circle cx="309.3" cy="885.3" r="1.82"/>
<circle cx="330.7" cy="885.3" r="1.82"/>
<circle cx="352.0" cy="885.3" r="1.82"/>
<circle cx="373.3" cy="885.3" r="1.82"/>
<circle cx="394.7" cy="885.3" r="1.82"/>
<circle cx="416.0" cy="885.3" r="1.82"/>
<circle cx="437.3" cy="885.3" r="1.82"/>
<circle cx="458.7" cy="885.3" r="1.82"/>
<circle cx="480.0" cy="885.3" r="1.82"/>
<circle cx="501.3" cy="885.3" r="1.82"/>
<circle cx="522.7" cy="885.3" r="1.82"/>
<circle cx="544.0" cy="885.3" r="1.82"/>
<circle cx="565.3" cy="885.3" r="1.82"/>
<circle cx="586.7" cy="885.3" r="1.82"/>
<circle cx="608.0" cy="885.3" r="1.82"/>
<circle cx="629.3" cy="885.3" r="1.82"/>
<circle cx="650.7" cy="885.3" r="1.82"/>
<circle cx="672.0" cy="885.3" r="1.82"/>
<circle cx="693.3" cy="885.3" r="1.82"/>
<circle cx="714.7" cy="885.3" r="1.82"/>
<circle cx="736.0" cy="885.3" r="1.82"/>
<circle cx="757.3" cy="885.3" r="1.82"/>
<circle cx="778.7" cy="885.3" r="1.82"/>
<circle cx="800.0" cy="885.3" r="1.82"/>
<circle cx="821.3" cy="885.3" r="1.82"/>
<circle cx="842.7" cy="885.3" r="1.82"/>
<circle cx="864.0" cy="885.3" r="1.82"/>
<circle cx="885.3" cy="885.3" r="1.82"/>
<circle cx="906.7" cy="885.3" r="1.82"/>
<circle cx="928.0" cy="885.3" r="1.82"/>
<circle cx="949.3" cy="885.3" r="1.82"/>
<circle cx="970.7" cy="885.3" r="1.82"/>
<circle cx="992.0" cy="885.3" r="1.82"/>
<circle cx="1013.3" cy="885.3" r="1.82"/>
<circle cx="10.7" cy="906.7" r="1.82"/>
<circle cx="32.0" cy="906.7" r="1.82"/>
<circle cx="53.3" cy="906.7" r="1.82"/>
<circle cx="74.7" cy="906.7" r="1.82"/>
<circle cx="96.0" cy="906.7" r="1.82"/>
<circle cx="117.3" cy="906.7" r="1.82"/>
<circle cx="138.7" cy="906.7" r="1.82"/>
<circle cx="160.0" cy="906.7" r="1.82"/>
<circle cx="181.3" cy="906.7" r="1.82"/>
<circle cx="202.7" cy="906.7" r="1.82"/>
<circle cx="224.0" cy="906.7" r="1.82"/>
<circle cx="245.3" cy="906.7" r="1.82"/>
<circle cx="266.7" cy="906.7" r="1.82"/>
<circle cx="288.0" cy="906.7" r="1.82"/>
<circle cx="309.3" cy="906.7" r="1.82"/>
<circle cx="330.7" cy="906.7" r="1.82"/>
<circle cx="352.0" cy="906.7" r="1.82"/>
<circle cx="373.3" cy="906.7" r="1.82"/>
<circle cx="394.7" cy="906.7" r="1.82"/>
<circle cx="416.0" cy="906.7" r="1.82"/>
<circle cx="437.3" cy="906.7" r="1.82"/>
<circle cx="458.7" cy="906.7" r="1.82"/>
<circle cx="480.0" cy="906.7" r="1.82"/>
<circle cx="501.3" cy="906.7" r="1.82"/>
<circle cx="522.7" cy="906.7" r="1.82"/>
<circle cx="544.0" cy="906.7" r="1.82"/>
<circle cx="565.3" cy="906.7" r="1.82"/>
<circle cx="586.7" cy="906.7" r="1.82"/>
<circle cx="608.0" cy="906.7" r="1.82"/>
<circle cx="629.3" cy="906.7" r="1.82"/>
<circle cx="650.7" cy="906.7" r="1.82"/>
<circle cx="672.0" cy="906.7" r="1.82"/>
<circle cx="693.3" cy="906.7" r="1.82"/>
<circle cx="714.7" cy="906.7" r="1.82"/>
<circle cx="736.0" cy="906.7" r="1.82"/>
<circle cx="757.3" cy="906.7" r="1.82"/>
<circle cx="778.7" cy="906.7" r="1.82"/>
<circle cx="800.0" cy="906.7" r="1.82"/>
<circle cx="821.3" cy="906.7" r="1.82"/>
<circle cx="842.7" cy="906.7" r="1.82"/>
<circle cx="864.0" cy="906.7" r="1.82"/>
<circle cx="885.3" cy="906.7" r="1.82"/>
<circle cx="906.7" cy="906.7" r="1.82"/>
<circle cx="928.0" cy="906.7" r="1.82"/>
<circle cx="949.3" cy="906.7" r="1.82"/>
<circle cx="970.7" cy="906.7" r="1.82"/>
<circle cx="992.0" cy="906.7" r="1.82"/>
<circle cx="1013.3" cy="906.7" r="1.82"/>
<circle cx="10.7" cy="928.0" r="1.82"/>
<circle cx="32.0" cy="928.0" r="1.82"/>
<circle cx="53.3" cy="928.0" r="1.82"/>
<circle cx="74.7" cy="928.0" r="1.82"/>
<circle cx="96.0" cy="928.0" r="1.82"/>
<circle cx="117.3" cy="928.0" r="1.82"/>
<circle cx="138.7" cy="928.0" r="1.82"/>
<circle cx="160.0" cy="928.0" r="1.82"/>
<circle cx="181.3" cy="928.0" r="1.82"/>
<circle cx="202.7" cy="928.0" r="1.82"/>
<circle cx="224.0" cy="928.0" r="1.82"/>
<circle cx="245.3" cy="928.0" r="1.82"/>
<circle cx="266.7" cy="928.0" r="1.82"/>
<circle cx="288.0" cy="928.0" r="1.82"/>
<circle cx="309.3" cy="928.0" r="1.82"/>
<circle cx="330.7" cy="928.0" r="1.82"/>
<circle cx="352.0" cy="928.0" r="1.82"/>
<circle cx="373.3" cy="928.0" r="1.82"/>
<circle cx="394.7" cy="928.0" r="1.82"/>
<circle cx="416.0" cy="928.0" r="1.82"/>
<circle cx="437.3" cy="928.0" r="1.82"/>
<circle cx="458.7" cy="928.0" r="1.82"/>
<circle cx="480.0" cy="928.0" r="1.82"/>
<circle cx="501.3" cy="928.0" r="1.82"/>
<circle cx="522.7" cy="928.0" r="1.82"/>
<circle cx="544.0" cy="928.0" r="1.82"/>
<circle cx="565.3" cy="928.0" r="1.82"/>
<circle cx="586.7" cy="928.0" r="1.82"/>
<circle cx="608.0" cy="928.0" r="1.82"/>
<circle cx="629.3" cy="928.0" r="1.82"/>
<circle cx="650.7" cy="928.0" r="1.82"/>
<circle cx="672.0" cy="928.0" r="1.82"/>
<circle cx="693.3" cy="928.0" r="1.82"/>
<circle cx="714.7" cy="928.0" r="1.82"/>
<circle cx="736.0" cy="928.0" r="1.82"/>
<circle cx="757.3" cy="928.0" r="1.82"/>
<circle cx="778.7" cy="928.0" r="1.82"/>
<circle cx="800.0" cy="928.0" r="1.82"/>
<circle cx="821.3" cy="928.0" r="1.82"/>
<circle cx="842.7" cy="928.0" r="1.82"/>
<circle cx="864.0" cy="928.0" r="1.82"/>
<circle cx="885.3" cy="928.0" r="1.82"/>
<circle cx="906.7" cy="928.0" r="1.82"/>
<circle cx="928.0" cy="928.0" r="1.82"/>
<circle cx="949.3" cy="928.0" r="1.82"/>
<circle cx="970.7" cy="928.0" r="1.82"/>
<circle cx="992.0" cy="928.0" r="1.82"/>
<circle cx="1013.3" cy="928.0" r="1.82"/>
<circle cx="10.7" cy="949.3" r="1.82"/>
<circle cx="32.0" cy="949.3" r="1.82"/>
<circle cx="53.3" cy="949.3" r="1.82"/>
<circle cx="74.7" cy="949.3" r="1.82"/>
<circle cx="96.0" cy="949.3" r="1.82"/>
<circle cx="117.3" cy="949.3" r="1.82"/>
<circle cx="138.7" cy="949.3" r="1.82"/>
<circle cx="160.0" cy="949.3" r="1.82"/>
<circle cx="181.3" cy="949.3" r="1.82"/>
<circle cx="202.7" cy="949.3" r="1.82"/>
<circle cx="224.0" cy="949.3" r="1.82"/>
<circle cx="245.3" cy="949.3" r="1.82"/>
<circle cx="266.7" cy="949.3" r="1.82"/>
<circle cx="288.0" cy="949.3" r="1.82"/>
<circle cx="309.3" cy="949.3" r="1.82"/>
<circle cx="330.7" cy="949.3" r="1.82"/>
<circle cx="352.0" cy="949.3" r="1.82"/>
<circle cx="373.3" cy="949.3" r="1.82"/>
<circle cx="394.7" cy="949.3" r="1.82"/>
<circle cx="416.0" cy="949.3" r="1.82"/>
<circle cx="437.3" cy="949.3" r="1.82"/>
<circle cx="458.7" cy="949.3" r="1.82"/>
<circle cx="480.0" cy="949.3" r="1.82"/>
<circle cx="501.3" cy="949.3" r="1.82"/>
<circle cx="522.7" cy="949.3" r="1.82"/>
<circle cx="544.0" cy="949.3" r="1.82"/>
<circle cx="565.3" cy="949.3" r="1.82"/>
<circle cx="586.7" cy="949.3" r="1.82"/>
<circle cx="608.0" cy="949.3" r="1.82"/>
<circle cx="629.3" cy="949.3" r="1.82"/>
<circle cx="650.7" cy="949.3" r="1.82"/>
<circle cx="672.0" cy="949.3" r="1.82"/>
<circle cx="693.3" cy="949.3" r="1.82"/>
<circle cx="714.7" cy="949.3" r="1.82"/>
<circle cx="736.0" cy="949.3" r="1.82"/>
<circle cx="757.3" cy="949.3" r="1.82"/>
<circle cx="778.7" cy="949.3" r="1.82"/>
<circle cx="800.0" cy="949.3" r="1.82"/>
<circle cx="821.3" cy="949.3" r="1.82"/>
<circle cx="842.7" cy="949.3" r="1.82"/>
<circle cx="864.0" cy="949.3" r="1.82"/>
<circle cx="885.3" cy="949.3" r="1.82"/>
<circle cx="906.7" cy="949.3" r="1.82"/>
<circle cx="928.0" cy="949.3" r="1.82"/>
<circle cx="949.3" cy="949.3" r="1.82"/>
<circle cx="970.7" cy="949.3" r="1.82"/>
<circle cx="992.0" cy="949.3" r="1.82"/>
<circle cx="1013.3" cy="949.3" r="1.82"/>
<circle cx="10.7" cy="970.7" r="1.82"/>
<circle cx="32.0" cy="970.7" r="1.82"/>
<circle cx="53.3" cy="970.7" r="1.82"/>
<circle cx="74.7" cy="970.7" r="1.82"/>
<circle cx="96.0" cy="970.7" r="1.82"/>
<circle cx="117.3" cy="970.7" r="1.82"/>
<circle cx="138.7" cy="970.7" r="1.82"/>
<circle cx="160.0" cy="970.7" r="1.82"/>
<circle cx="181.3" cy="970.7" r="1.82"/>
<circle cx="202.7" cy="970.7" r="1.82"/>
<circle cx="224.0" cy="970.7" r="1.82"/>
<circle cx="245.3" cy="970.7" r="1.82"/>
<circle cx="266.7" cy="970.7" r="1.82"/>
<circle cx="288.0" cy="970.7" r="1.82"/>
<circle cx="309.3" cy="970.7" r="1.82"/>
<circle cx="330.7" cy="970.7" r="1.82"/>
<circle cx="352.0" cy="970.7" r="1.82"/>
<circle cx="373.3" cy="970.7" r="1.82"/>
<circle cx="394.7" cy="970.7" r="1.82"/>
<circle cx="416.0" cy="970.7" r="1.82"/>
<circle cx="437.3" cy="970.7" r="1.82"/>
<circle cx="458.7" cy="970.7" r="1.82"/>
<circle cx="480.0" cy="970.7" r="1.82"/>
<circle cx="501.3" cy="970.7" r="1.82"/>
<circle cx="522.7" cy="970.7" r="1.82"/>
<circle cx="544.0" cy="970.7" r="1.82"/>
<circle cx="565.3" cy="970.7" r="1.82"/>
<circle cx="586.7" cy="970.7" r="1.82"/>
<circle cx="608.0" cy="970.7" r="1.82"/>
<circle cx="629.3" cy="970.7" r="1.82"/>
<circle cx="650.7" cy="970.7" r="1.82"/>
<circle cx="672.0" cy="970.7" r="1.82"/>
<circle cx="693.3" cy="970.7" r="1.82"/>
<circle cx="714.7" cy="970.7" r="1.82"/>
<circle cx="736.0" cy="970.7" r="1.82"/>
<circle cx="757.3" cy="970.7" r="1.82"/>
<circle cx="778.7" cy="970.7" r="1.82"/>
<circle cx="800.0" cy="970.7" r="1.82"/>
<circle cx="821.3" cy="970.7" r="1.82"/>
<circle cx="842.7" cy="970.7" r="1.82"/>
<circle cx="864.0" cy="970.7" r="1.82"/>
<circle cx="885.3" cy="970.7" r="1.82"/>
<circle cx="906.7" cy="970.7" r="1.82"/>
<circle cx="928.0" cy="970.7" r="1.82"/>
<circle cx="949.3" cy="970.7" r="1.82"/>
<circle cx="970.7" cy="970.7" r="1.82"/>
<circle cx="992.0" cy="970.7" r="1.82"/>
<circle cx="1013.3" cy="970.7" r="1.82"/>
<circle cx="10.7" cy="992.0" r="1.82"/>
<circle cx="32.0" cy="992.0" r="1.82"/>
<circle cx="53.3" cy="992.0" r="1.82"/>
<circle cx="74.7" cy="992.0" r="1.82"/>
<circle cx="96.0" cy="992.0" r="1.82"/>
<circle cx="117.3" cy="992.0" r="1.82"/>
<circle cx="138.7" cy="992.0" r="1.82"/>
<circle cx="160.0" cy="992.0" r="1.82"/>
<circle cx="181.3" cy="992.0" r="1.82"/>
<circle cx="202.7" cy="992.0" r="1.82"/>
<circle cx="224.0" cy="992.0" r="1.82"/>
<circle cx="245.3" cy="992.0" r="1.82"/>
<circle cx="266.7" cy="992.0" r="1.82"/>
<circle cx="288.0" cy="992.0" r="1.82"/>
<circle cx="309.3" cy="992.0" r="1.82"/>
<circle cx="330.7" cy="992.0" r="1.82"/>
<circle cx="352.0" cy="992.0" r="1.82"/>
<circle cx="373.3" cy="992.0" r="1.82"/>
<circle cx="394.7" cy="992.0" r="1.82"/>
<circle cx="416.0" cy="992.0" r="1.82"/>
<circle cx="437.3" cy="992.0" r="1.82"/>
<circle cx="458.7" cy="992.0" r="1.82"/>
<circle cx="480.0" cy="992.0" r="1.82"/>
<circle cx="501.3" cy="992.0" r="1.82"/>
<circle cx="522.7" cy="992.0" r="1.82"/>
<circle cx="544.0" cy="992.0" r="1.82"/>
<circle cx="565.3" cy="992.0" r="1.82"/>
<circle cx="586.7" cy="992.0" r="1.82"/>
<circle cx="608.0" cy="992.0" r="1.82"/>
<circle cx="629.3" cy="992.0" r="1.82"/>
<circle cx="650.7" cy="992.0" r="1.82"/>
<circle cx="672.0" cy="992.0" r="1.82"/>
<circle cx="693.3" cy="992.0" r="1.82"/>
<circle cx="714.7" cy="992.0" r="1.82"/>
<circle cx="736.0" cy="992.0" r="1.82"/>
<circle cx="757.3" cy="992.0" r="1.82"/>
<circle cx="778.7" cy="992.0" r="1.82"/>
<circle cx="800.0" cy="992.0" r="1.82"/>
<circle cx="821.3" cy="992.0" r="1.82"/>
<circle cx="842.7" cy="992.0" r="1.82"/>
<circle cx="864.0" cy="992.0" r="1.82"/>
<circle cx="885.3" cy="992.0" r="1.82"/>
<circle cx="906.7" cy="992.0" r="1.82"/>
<circle cx="928.0" cy="992.0" r="1.82"/>
<circle cx="949.3" cy="992.0" r="1.82"/>
<circle cx="970.7" cy="992.0" r="1.82"/>
<circle cx="992.0" cy="992.0" r="1.82"/>
<circle cx="1013.3" cy="992.0" r="1.82"/>
<circle cx="10.7" cy="1013.3" r="1.82"/>
<circle cx="32.0" cy="1013.3" r="1.82"/>
<circle cx="53.3" cy="1013.3" r="1.82"/>
<circle cx="74.7" cy="1013.3" r="1.82"/>
<circle cx="96.0" cy="1013.3" r="1.82"/>
<circle cx="117.3" cy="1013.3" r="1.82"/>
<circle cx="138.7" cy="1013.3" r="1.82"/>
<circle cx="160.0" cy="1013.3" r="1.82"/>
<circle cx="181.3" cy="1013.3" r="1.82"/>
<circle cx="202.7" cy="1013.3" r="1.82"/>
<circle cx="224.0" cy="1013.3" r="1.82"/>
<circle cx="245.3" cy="1013.3" r="1.82"/>
<circle cx="266.7" cy="1013.3" r="1.82"/>
<circle cx="288.0" cy="1013.3" r="1.82"/>
<circle cx="309.3" cy="1013.3" r="1.82"/>
<circle cx="330.7" cy="1013.3" r="1.82"/>
<circle cx="352.0" cy="1013.3" r="1.82"/>
<circle cx="373.3" cy="1013.3" r="1.82"/>
<circle cx="394.7" cy="1013.3" r="1.82"/>
<circle cx="416.0" cy="1013.3" r="1.82"/>
<circle cx="437.3" cy="1013.3" r="1.82"/>
<circle cx="458.7" cy="1013.3" r="1.82"/>
<circle cx="480.0" cy="1013.3" r="1.82"/>
<circle cx="501.3" cy="1013.3" r="1.82"/>
<circle cx="522.7" cy="1013.3" r="1.82"/>
<circle cx="544.0" cy="1013.3" r="1.82"/>
<circle cx="565.3" cy="1013.3" r="1.82"/>
<circle cx="586.7" cy="1013.3" r="1.82"/>
<circle cx="608.0" cy="1013.3" r="1.82"/>
<circle cx="629.3" cy="1013.3" r="1.82"/>
<circle cx="650.7" cy="1013.3" r="1.82"/>
<circle cx="672.0" cy="1013.3" r="1.82"/>
<circle cx="693.3" cy="1013.3" r="1.82"/>
<circle cx="714.7" cy="1013.3" r="1.82"/>
<circle cx="736.0" cy="1013.3" r="1.82"/>
<circle cx="757.3" cy="1013.3" r="1.82"/>
<circle cx="778.7" cy="1013.3" r="1.82"/>
<circle cx="800.0" cy="1013.3" r="1.82"/>
<circle cx="821.3" cy="1013.3" r="1.82"/>
<circle cx="842.7" cy="1013.3" r="1.82"/>
<circle cx="864.0" cy="1013.3" r="1.82"/>
<circle cx="885.3" cy="1013.3" r="1.82"/>
<circle cx="906.7" cy="1013.3" r="1.82"/>
<circle cx="928.0" cy="1013.3" r="1.82"/>
<circle cx="949.3" cy="1013.3" r="1.82"/>
<circle cx="970.7" cy="1013.3" r="1.82"/>
<circle cx="992.0" cy="1013.3" r="1.82"/>
<circle cx="1013.3" cy="1013.3" r="1.82"/>
  </g>
</svg>